<?xml version="1.0" encoding="UTF-8" standalone="no"?>
<svg
   xmlns:dc="http://purl.org/dc/elements/1.1/"
   xmlns:cc="http://creativecommons.org/ns#"
   xmlns:rdf="http://www.w3.org/1999/02/22-rdf-syntax-ns#"
   xmlns:svg="http://www.w3.org/2000/svg"
   xmlns="http://www.w3.org/2000/svg"
   xmlns:sodipodi="http://sodipodi.sourceforge.net/DTD/sodipodi-0.dtd"
   xmlns:inkscape="http://www.inkscape.org/namespaces/inkscape"
   viewBox="0 0 1280 420"
   height="420"
   width="1280"
   version="1.1"
   id="svg4190"
   inkscape:version="0.91 r13725"
   sodipodi:docname="bubble-popping.svg"
   inkscape:export-filename="/home/fp/Dev/manifesto/src/components/bubble/img/wind_confidentiality_bubble.png"
   inkscape:export-xdpi="76.618011"
   inkscape:export-ydpi="76.618011">
  <sodipodi:namedview
     pagecolor="#ffffff"
     bordercolor="#666666"
     borderopacity="1"
     objecttolerance="10"
     gridtolerance="10"
     guidetolerance="10"
     inkscape:pageopacity="0"
     inkscape:pageshadow="2"
     inkscape:window-width="1215"
     inkscape:window-height="776"
     id="namedview7536"
     showgrid="false"
     inkscape:zoom="0.515625"
     inkscape:cx="663.53304"
     inkscape:cy="-53.021994"
     inkscape:window-x="65"
     inkscape:window-y="24"
     inkscape:window-maximized="1"
     inkscape:current-layer="svg4190"
     showguides="false" />
  <metadata
     id="metadata4196">
    <rdf:RDF>
      <cc:Work
         rdf:about="">
        <dc:format>image/svg+xml</dc:format>
        <dc:type
           rdf:resource="http://purl.org/dc/dcmitype/StillImage" />
        <dc:title />
      </cc:Work>
    </rdf:RDF>
  </metadata>
  <defs
     id="defs4194" />
  <g
     style="stroke-width:2;stroke-miterlimit:4;stroke-dasharray:none"
     id="g6251">
    <path
       style="fill:none;fill-rule:evenodd;stroke:#59c3c3;stroke-width:2;stroke-linecap:butt;stroke-linejoin:miter;stroke-opacity:1;stroke-miterlimit:4;stroke-dasharray:none"
       d="m 188.10642,203.27577 c 18.57566,-10.9862 30.13388,-35.73523 52.14063,-39.1688 20.18744,0.28803 40.41546,3.2274 60.52605,2.74597 27.14678,7.62343 55.37334,10.19697 82.36652,18.28637 16.0527,4.04519 38.49839,5.97372 48.46752,-10.24157 7.70032,-24.71936 -25.71815,-24.72398 -40.66065,-31.4739 -22.37448,-9.15315 -46.53913,-13.36094 -68.15728,-24.31584 -20.40713,-7.60038 -42.98765,-3.72439 -63.25073,-11.32709 -20.58085,-2.65135 -41.86244,-1.38303 -61.46675,-9.46815 C 175.18504,89.94674 151.90043,82.89775 128.35963,76.70901 106.76254,69.92384 86.30952,59.982 65.634739,51.06892 57.440084,48.69148 48.711825,47.97491 40.983101,44.13477"
       id="path4222" />
    <path
       style="fill:none;fill-rule:evenodd;stroke:#59c3c3;stroke-width:2;stroke-linecap:butt;stroke-linejoin:miter;stroke-opacity:1;stroke-miterlimit:4;stroke-dasharray:none"
       d="m 235.60557,164.69825 c 10.54907,21.41521 32.32811,33.95887 46.14811,52.57241 8.14487,20.4506 8.87467,43.03386 17.16909,63.42751 4.09977,19.8177 9.18485,39.78259 8.33941,60.18193 11.52158,14.75018 1.47798,36.47108 -18.62757,27.54433 -20.49838,-5.76401 -29.79067,-27.56236 -30.00506,-47.26276 -2.9596,-20.38153 -2.78189,-44.14446 -16.79283,-60.5742"
       id="path4224" />
    <path
       style="fill:none;fill-rule:evenodd;stroke:#59c3c3;stroke-width:2;stroke-linecap:butt;stroke-linejoin:miter;stroke-opacity:1;stroke-miterlimit:4;stroke-dasharray:none"
       d="m 198.23584,199.90262 c 7.80542,6.19593 8.97351,16.72131 13.27538,25.09086"
       id="path4226" />
    <path
       style="fill:none;fill-rule:evenodd;stroke:#59c3c3;stroke-width:2;stroke-linecap:butt;stroke-linejoin:miter;stroke-opacity:1;stroke-miterlimit:4;stroke-dasharray:none"
       d="m 102.52199,112.88329 c 8.88552,25.12676 28.81886,43.97926 45.78548,63.72411 20.91535,19.15736 45.84167,33.51739 65.72995,53.83415 19.67346,8.14135 40.5937,36.61479 15.03984,51.42339 -22.07764,12.52683 -45.50411,-3.10704 -63.8094,-15.15775 -15.41749,-8.30109 -27.36882,-20.43811 -39.82402,-32.40159 -12.67447,-9.74337 -24.87768,-21.32766 -39.95133,-27.01971 -9.741567,-2.71406 -19.937775,-2.73853 -29.868772,-4.34488"
       id="path4228" />
    <path
       style="fill:none;fill-rule:evenodd;stroke:#59c3c3;stroke-width:2;stroke-linecap:butt;stroke-linejoin:miter;stroke-opacity:1;stroke-miterlimit:4;stroke-dasharray:none"
       d="m 213.7992,238.10444 c -26.28437,-2.50672 -29.12451,35.20262 -2.98762,37.12154 23.54545,6.93861 31.80186,-24.69367 10.17141,-33.34942 -2.24518,-1.51775 -4.65677,-2.79148 -7.18379,-3.77212 z"
       id="path4230" />
    <path
       style="fill:none;fill-rule:evenodd;stroke:#59c3c3;stroke-width:2;stroke-linecap:butt;stroke-linejoin:miter;stroke-opacity:1;stroke-miterlimit:4;stroke-dasharray:none"
       d="m 172.50421,213.25174 c -5.66394,4.91519 -11.20633,11.23683 -11.56336,19.11985"
       id="path4232" />
    <path
       style="fill:none;fill-rule:evenodd;stroke:#59c3c3;stroke-width:2;stroke-linecap:butt;stroke-linejoin:miter;stroke-opacity:1;stroke-miterlimit:4;stroke-dasharray:none"
       d="m 197.54531,285.29171 c -2.67426,17.14292 9.64947,34.56376 2.06656,51.14125 -16.5019,17.34922 -39.65059,-6.12182 -39.17197,-25.02258 -3.12898,-24.04419 -16.57003,-45.07808 -27.31891,-66.27499 -2.47018,-3.67535 -5.24738,-7.15335 -8.382,-10.28549"
       id="path4234" />
    <path
       style="fill:none;fill-rule:evenodd;stroke:#59c3c3;stroke-width:2;stroke-linecap:butt;stroke-linejoin:miter;stroke-opacity:1;stroke-miterlimit:4;stroke-dasharray:none"
       d="m 258.89782,317.44477 c -10.23827,14.41073 0.41178,34.734 -11.10469,48.46167 -22.48012,14.47235 -38.16636,-19.06468 -31.40031,-37.86469 4.44564,-14.16915 -1.7786,-27.3267 -6.87084,-40.23262"
       id="path4236" />
    <path
       style="fill:none;fill-rule:evenodd;stroke:#59c3c3;stroke-width:2;stroke-linecap:butt;stroke-linejoin:miter;stroke-opacity:1;stroke-miterlimit:4;stroke-dasharray:none"
       d="m 235.19804,293.16405 c -5.37521,5.2341 -11.88541,9.1727 -17.00825,14.68244"
       id="path4238" />
    <path
       style="fill:none;fill-rule:evenodd;stroke:#59c3c3;stroke-width:2;stroke-linecap:butt;stroke-linejoin:miter;stroke-opacity:1;stroke-miterlimit:4;stroke-dasharray:none"
       d="m 162.19509,277.88704 c -3.60467,1.86316 -7.06863,4.67391 -8.36678,8.67543"
       id="path4240" />
    <path
       style="fill:none;fill-rule:evenodd;stroke:#59c3c3;stroke-width:2;stroke-linecap:butt;stroke-linejoin:miter;stroke-opacity:1;stroke-miterlimit:4;stroke-dasharray:none"
       d="m 257.4712,299.97583 c -2.56354,-6.15926 6.18805,-6.50054 9.46462,-8.70998"
       id="path4242" />
    <path
       style="fill:none;fill-rule:evenodd;stroke:#59c3c3;stroke-width:2;stroke-linecap:butt;stroke-linejoin:miter;stroke-opacity:1;stroke-miterlimit:4;stroke-dasharray:none"
       d="m 232.02973,241.66259 c 5.56271,1.41619 10.76212,8.09783 16.84917,4.39622"
       id="path4244" />
    <path
       style="fill:none;fill-rule:evenodd;stroke:#59c3c3;stroke-width:2;stroke-linecap:butt;stroke-linejoin:miter;stroke-opacity:1;stroke-miterlimit:4;stroke-dasharray:none"
       d="m 178.19076,152.0541 c -9.45352,11.78225 -26.9219,10.25182 -38.58825,17.99392"
       id="path4246" />
    <path
       style="fill:none;fill-rule:evenodd;stroke:#59c3c3;stroke-width:2;stroke-linecap:butt;stroke-linejoin:miter;stroke-opacity:1;stroke-miterlimit:4;stroke-dasharray:none"
       d="m 203.29084,167.59757 c -19.45962,-6.7052 -39.82693,-0.16198 -59.46967,1.42294"
       id="path4248" />
    <path
       style="fill:none;fill-rule:evenodd;stroke:#59c3c3;stroke-width:2;stroke-linecap:butt;stroke-linejoin:miter;stroke-opacity:1;stroke-miterlimit:4;stroke-dasharray:none"
       d="M 191.55833,178.70601 C 177.295,172.2744 161.2262,173.08711 145.98047,173.65107"
       id="path4250" />
    <path
       style="fill:none;fill-rule:evenodd;stroke:#59c3c3;stroke-width:2;stroke-linecap:butt;stroke-linejoin:miter;stroke-opacity:1;stroke-miterlimit:4;stroke-dasharray:none"
       d="m 360.50639,158.17823 c -2.10593,5.32432 5.7811,14.7211 -2.37145,17.07871"
       id="path4252" />
    <path
       style="fill:none;fill-rule:evenodd;stroke:#59c3c3;stroke-width:2;stroke-linecap:butt;stroke-linejoin:miter;stroke-opacity:1;stroke-miterlimit:4;stroke-dasharray:none"
       d="m 298.46975,142.00652 c -3.18407,8.29448 2.59247,17.38656 -0.31619,25.51611"
       id="path4254" />
    <path
       style="fill:none;fill-rule:evenodd;stroke:#59c3c3;stroke-width:2;stroke-linecap:butt;stroke-linejoin:miter;stroke-opacity:1;stroke-miterlimit:4;stroke-dasharray:none"
       d="m 164.3156,102.14935 c 3.64517,2.89353 27.3134,23.77911 7.40563,7.82165"
       id="path4256" />
    <path
       style="fill:none;fill-rule:evenodd;stroke:#59c3c3;stroke-width:2;stroke-linecap:butt;stroke-linejoin:miter;stroke-opacity:1;stroke-miterlimit:4;stroke-dasharray:none"
       d="m 48.966789,140.90409 c -10.340214,16.81908 12.038049,29.74642 12.847527,45.68603"
       id="path4258" />
    <path
       style="fill:none;fill-rule:evenodd;stroke:#59c3c3;stroke-width:2;stroke-linecap:butt;stroke-linejoin:miter;stroke-opacity:1;stroke-miterlimit:4;stroke-dasharray:none"
       d="M 57.591455,201.71342 C 37.916067,197.50284 18.348012,192.3524 -0.226504,184.51411"
       id="path4262" />
  </g>
  <rect
     y="133.93762"
     x="-407.18088"
     height="61.187702"
     width="190.36174"
     id="rect5289-6"
     style="fill:#a2faa3;fill-opacity:1;fill-rule:evenodd;stroke:none;stroke-width:4.05000019;stroke-miterlimit:4;stroke-dasharray:none;stroke-opacity:1" />
  <rect
     y="201.40619"
     x="-407.18088"
     height="61.187702"
     width="190.36174"
     id="rect5289-6-7"
     style="fill:#88a0a8;fill-opacity:1;fill-rule:evenodd;stroke:none;stroke-width:4.05000019;stroke-miterlimit:4;stroke-dasharray:none;stroke-opacity:1" />
  <rect
     y="268.87469"
     x="-407.18088"
     height="61.187702"
     width="190.36174"
     id="rect5289-6-7-5"
     style="fill:#595358;fill-opacity:1;fill-rule:evenodd;stroke:none;stroke-width:4.05000019;stroke-miterlimit:4;stroke-dasharray:none;stroke-opacity:1" />
  <rect
     y="336.3432"
     x="-407.18088"
     height="61.187702"
     width="190.36174"
     id="rect5289-6-7-5-3"
     style="fill:#857f74;fill-opacity:1;fill-rule:evenodd;stroke:none;stroke-width:4.05000019;stroke-miterlimit:4;stroke-dasharray:none;stroke-opacity:1" />
  <rect
     y="66.469101"
     x="-407.18088"
     height="61.187702"
     width="190.36174"
     id="rect5289-6-7-5-3-3"
     style="fill:#59c3c3;fill-opacity:1;fill-rule:evenodd;stroke:none;stroke-width:4.05000019;stroke-miterlimit:4;stroke-dasharray:none;stroke-opacity:1" />
  <path
     inkscape:connector-curvature="0"
     id="path5735"
     d="M 530.75,62.500001 C 574.36955,31.7935 631.2869,26.59881 682.44116,37.223907 c 32.71411,6.893367 65.96029,18.457973 90.2751,42.384784 10.99953,10.872699 20.98474,22.917599 29.25304,35.977869 7.19763,12.46141 11.91416,26.11822 17.2807,39.41344"
     style="fill:none;fill-rule:evenodd;stroke:#59c3c3;stroke-width:2;stroke-linecap:butt;stroke-linejoin:miter;stroke-miterlimit:4;stroke-dasharray:none;stroke-opacity:1" />
  <path
     sodipodi:nodetypes="ccccc"
     inkscape:connector-curvature="0"
     id="path5737"
     d="m 818.625,154.375 c 6.99784,36.81886 8.59079,75.36255 -2.30015,111.60307 -14.69948,43.16697 -44.32751,81.90792 -85.20808,103.15366 C 663.009,404.63659 573.76882,399.09071 513.40161,350.46993 498.85519,337.15654 484.5299,323.22933 473.875,306.5"
     style="fill:none;fill-rule:evenodd;stroke:#59c3c3;stroke-width:2;stroke-linecap:butt;stroke-linejoin:miter;stroke-miterlimit:4;stroke-dasharray:none;stroke-opacity:1" />
  <path
     inkscape:connector-curvature="0"
     id="path5739"
     d="m 474,307 c -22.09873,-39.91567 -35.58646,-88.00433 -22.00774,-133.0104 8.38719,-28.87692 19.66515,-57.96921 41.25965,-79.696016 10.87772,-10.936487 22.68401,-20.784655 34.70229,-30.115141 l 1.92395,-1.434727 1.74685,-1.618715"
     style="fill:none;fill-rule:evenodd;stroke:#59c3c3;stroke-width:2;stroke-linecap:butt;stroke-linejoin:miter;stroke-miterlimit:4;stroke-dasharray:none;stroke-opacity:1" />
  <path
     id="path6015"
     d="m 795.26489,229.17057 c 4.44791,-18.7449 -23.88452,-17.62458 -33.87852,-27.84675 -16.72419,-10.2128 -15.83662,-31.27656 -14.10403,-48.21453 3.72558,-6.49729 -2.62717,-27.61433 -8.31389,-13.52767 -3.21858,16.99916 5.12217,35.37343 -2.91307,51.63292 -6.99396,11.25436 -20.65805,14.63126 -31.11059,21.80118 -5.71763,3.29702 -11.43526,6.59405 -17.15289,9.89108 13.34317,13.66711 25.61186,-10.19596 38.40743,-13.40798 12.22314,-11.0279 18.1024,6.0819 13.67271,15.97311 -0.82151,34.91434 -1.64303,69.82869 -2.46454,104.74303 13.9315,5.23059 12.89786,-13.37981 11.70584,-22.11175 -0.77006,-34.60762 -1.54013,-69.21524 -2.3102,-103.82286 13.94355,2.36442 24.61359,12.65789 37.16937,18.5094 3.76413,2.12694 7.52825,4.25388 11.29238,6.38082 z"
     style="fill:#59c1c1;fill-opacity:0.12871291;fill-rule:evenodd;stroke:none;stroke-width:0.46622625px;stroke-linecap:butt;stroke-linejoin:miter;stroke-opacity:1"
     inkscape:connector-curvature="0" />
  <path
     id="path6017"
     d="m 536.16797,100.5 c -0.013,0.0557 -0.0215,0.11242 -0.0352,0.16797 -0.006,0.0234 -0.017,0.0452 -0.0234,0.0684 0.0696,0.12982 0.078,0.0115 0.0586,-0.23633 z m 7.86328,7.20312 c -0.10864,0.0371 -0.21756,0.0725 -0.32617,0.10938 0.0441,0.0439 0.0903,0.0854 0.13476,0.12891 0.0261,-0.0117 0.0619,-0.0291 0.082,-0.0371 0.0411,-0.0634 0.0784,-0.128 0.11132,-0.19336 -5.1e-4,-0.002 -10e-4,-0.005 -0.002,-0.008 z m 17.98633,0.45899 c -0.12415,0.0458 -0.24739,0.0944 -0.375,0.12891 -0.77232,0.20893 -1.1327,0.21311 -1.84766,0.46289 -0.6166,0.21542 -1.17193,0.58576 -1.72851,0.91797 -1.0351,0.75914 -1.99307,0.74003 -3.14649,0.95117 -0.54213,0.0992 -1.07147,0.26407 -1.61133,0.375 -1.79604,0.58795 0.68472,-0.18009 -1.36914,0.29492 -0.0793,0.0183 -0.12919,0.105 -0.20703,0.12891 -0.32531,0.0999 -0.66593,0.15033 -0.99414,0.24023 -0.74948,0.20529 -0.72421,0.22289 -1.39453,0.52539 -0.50624,0.19173 -1.04401,0.297 -1.55078,0.48828 -0.14422,0.0544 -0.27899,0.13262 -0.42188,0.18945 l 32.5625,31.16211 c 10.51379,6.97814 14.99372,19.10982 17.83008,30.88477 l -14.3164,55.96289 c -3.84963,8.45519 -7.1675,25.96761 7.54492,23.86719 l 11.76172,-47.04297 -3.20703,159.66211 18.53124,0.35547 -3.73632,-169.41602 c -0.48297,-12.49892 -2.78666,-28.22604 9.79492,-35.86328 l 56.11133,-15.91992 c 9.57044,-0.73549 25.98832,-7.2983 16.59179,-19.00586 l -62.98828,18.75 c -10.5405,5.63212 -22.53812,2.50292 -33.23633,-0.93164 l -38.59765,-37.16797 z"
     style="fill:#59c1c1;fill-opacity:0.12871291;fill-rule:evenodd;stroke:none;stroke-width:0.71277529px;stroke-linecap:butt;stroke-linejoin:miter;stroke-opacity:1" />
  <path
     style="fill:#59c1c1;fill-opacity:0.12871291;fill-rule:evenodd;stroke:none;stroke-width:0.51188666px;stroke-linecap:butt;stroke-linejoin:miter;stroke-opacity:1"
     d="m 701.29261,231.26598 -7.30078,8.33008 c -7.94707,7.75934 -13.39312,19.59967 -25.09961,22.13672 l -18.99609,-3.57226 c -5.58202,-0.12674 -16.31863,-6.61596 -17.43555,2.2832 l 13.86133,2.84765 c 8.97794,2.70158 20.05159,1.47602 26.76172,9.08008 l -1.24024,55.2461 c 0.005,-0.007 0.009,-0.0144 0.0137,-0.0215 0.0646,-0.0105 0.0157,-0.002 0.0527,-0.008 0.004,-0.002 0.007,-0.003 0.0117,-0.006 0.005,-0.009 0.0183,-0.033 0.0195,-0.0352 0.0399,-0.0273 0.0718,-0.072 0.11914,-0.082 0.006,-0.001 0.0183,-0.003 0.0254,-0.004 0.0302,-0.006 0.12694,-0.0502 0.18945,-0.0781 0.0111,0.001 0.0593,0.007 0.10547,0.0156 0.006,0.001 0.008,6.7e-4 0.0137,0.002 0.038,8.5e-4 0.0764,-5.7e-4 0.11719,0.002 0.0133,9e-4 -0.0267,-0.004 -0.0391,-0.008 -0.007,-0.003 0.0143,2e-5 0.0215,0 0.0349,-5.4e-4 0.0686,-1.1e-4 0.10352,0 0.01,-0.007 0.0203,-0.0269 0.0293,-0.0312 0.0677,-0.0326 0.0972,-0.0299 0.13086,-0.0312 0.007,-0.008 0.014,-0.008 0.0215,-0.0117 0.0196,-0.0182 0.047,-0.0339 0.0801,-0.043 0.0809,-0.088 0.1598,-0.14263 0.14843,-0.0449 -0.0107,0.0102 0.0554,-0.003 0.11329,-0.008 0.0409,-6.9e-4 0.0803,-0.0119 0.11718,-0.01 0.0335,-5.5e-4 0.0661,-0.002 0.0996,-0.002 0.0543,3.5e-4 0.0542,3.2e-4 0.0918,0 0.018,-1e-5 0.0367,-1e-5 0.0547,0 0.0559,-0.0614 0.12577,-0.0989 0.20703,-0.11328 0.0289,-0.0171 0.0494,-0.0129 0.0684,-0.004 0.0316,-0.0282 0.0649,-0.0535 0.0976,-0.0801 -0.0491,-0.0153 0.0359,0.004 0.11719,0.0274 -0.062,-0.0248 -0.12611,0.0139 -0.18164,0.0332 0.10382,-0.0502 0.18148,-0.0456 0.2832,-0.0449 0.032,-4.8e-4 0.0637,-1.1e-4 0.0957,0 0.0436,-0.027 0.088,-0.0501 0.13867,-0.0606 0.0558,-0.0691 0.10673,-0.11029 0.1582,-0.13476 0.004,-0.005 0.005,-0.0113 0.01,-0.0156 0.0167,-0.017 0.0331,-0.0147 0.0664,-0.0273 0.0469,-0.054 0.0964,-0.0821 0.20899,-0.0703 0.012,0.001 0.0236,0.006 0.0351,0.01 0.0485,-0.006 0.0979,-0.004 0.14649,-0.002 0.0321,-0.001 0.0656,-0.002 0.0977,-0.002 0.01,10e-6 0.0194,10e-6 0.0293,0 0.0319,-0.0371 0.0818,-0.0582 0.15039,-0.0664 0.11555,-0.14151 0.2577,-0.2318 0.43945,-0.29102 -0.011,-0.0314 -0.0624,0.0415 -0.0644,0.0195 -0.002,-0.02 0.0177,-0.0379 0.0312,-0.0527 0.0402,-0.0439 0.0765,-0.0948 0.12891,-0.12305 0.087,-0.0469 0.33729,-0.0806 0.15234,-0.0527 0.0387,-0.036 0.19002,-0.037 0.24414,-0.0352 0.0468,-0.003 0.0937,-0.003 0.14063,-0.004 0.0405,-7.3e-4 0.0806,-6e-5 0.12109,0 0.0378,3e-5 0.0755,0 0.11328,0 l 0.0996,0 0.14844,0 c 0.0308,0 0.0634,0.005 0.0937,0 0.0514,-0.008 -0.0116,-0.0213 0.01,-0.0352 0.10617,-0.0692 0.23279,-0.11065 0.35156,-0.15234 -0.0155,0.005 -0.0592,0.0264 -0.0469,0.0156 0.0777,-0.0687 0.14283,-0.0536 0.24414,-0.084 0.014,-0.004 -0.0564,0.004 -0.043,-0.002 0.0382,-0.0163 0.0767,-0.0295 0.11524,-0.0449 0.0479,-0.01 0.0931,10e-4 0.13867,0.006 0.008,-0.002 0.0197,-0.004 0.041,-0.006 0.04,-0.002 0.0811,3.8e-4 0.12109,0 0.0431,-2.6e-4 0.0858,10e-6 0.12891,0 0.0356,-3e-5 0.0718,-1e-5 0.10742,0 0.0685,6e-5 0.10554,-9.4e-4 0.13086,0.004 0.0384,-0.005 0.10084,-0.004 0.1914,-0.004 -0.0156,-0.002 -0.0531,0.008 -0.0469,-0.006 0.009,-0.0206 0.0394,-0.0199 0.0606,-0.0273 0.0375,-0.013 0.078,-0.0197 0.11523,-0.0332 0.003,-9.9e-4 -0.0125,-0.005 -0.01,-0.006 0.0709,-0.0372 0.11429,-0.0384 0.1836,-0.0508 0.0112,-0.007 0.0195,-0.0169 0.0293,-0.0254 0.19026,-0.0567 0.16255,-0.0525 0.13281,-0.0234 0.0276,-0.006 0.0547,-0.0128 0.11133,-0.006 0.0169,0.002 0.0394,-0.003 0.0508,0.01 0.009,0.01 0.0294,0.0262 0.043,0.0391 l -1.10157,-43.80859 3.90039,11.48828 c 1.98404,4.61092 2.9427,17.15093 10.44532,11.88477 l -2.98438,-8.61914 c -2.89817,-11.1944 -10.65329,-22.15063 -7.33203,-34.09766 l 13.15625,-15.32031 c 2.94412,-4.57324 13.72508,-10.98527 6.1875,-15.95313 z m -22.47656,94.38282 c -0.0314,0.007 -0.0466,0.0207 -0.0488,0.041 0.009,4.8e-4 0.0183,9.5e-4 0.0273,0.002 0.001,1.2e-4 0.003,-1.4e-4 0.004,0 6.5e-4,-0.02 0.006,-0.0313 0.0176,-0.043 z m -0.0176,0.043 c -6.5e-4,0.0201 0.0246,0.0432 0.0625,0.0684 0.0148,-0.0143 0.0316,-0.0283 0.0449,-0.041 0.0117,-0.0107 -0.0314,-0.01 -0.0469,-0.0137 -0.0204,-0.006 -0.0398,-0.0114 -0.0606,-0.0137 z m 0.0625,0.0684 c -0.0132,0.0127 -0.027,0.0217 -0.041,0.0352 0.036,0.0513 0.0619,0.10121 0.11329,0.16016 0.0338,-0.0262 0.0657,-0.049 0.0918,-0.0547 l -0.002,-0.084 c -0.059,-0.0193 -0.13494,-0.0385 -0.16211,-0.0566 z m 0.0723,0.19532 c -0.066,0.0511 -0.11691,0.10562 -0.16602,0.17773 0.0718,0.002 0.14332,0.002 0.21484,-0.006 0.0152,-0.002 0.0182,-0.002 0.0293,-0.004 0.007,-0.003 0.0127,-0.007 0.0195,-0.01 l 0,-0.0273 c -0.0285,-0.043 -0.0552,-0.0822 -0.0977,-0.13086 z m -4.38868,0.83789 c -0.002,0.002 -0.006,0.007 -0.008,0.01 0.0259,-0.013 0.0309,-0.0141 0.0703,-0.0371 0.0196,-0.0114 -0.0309,0.0154 -0.0625,0.0274 z m -0.008,0.01 c -0.0247,0.0124 -0.0518,0.0253 -0.0684,0.0332 -0.0335,0.0415 -0.0519,0.0942 -0.0762,0.14257 0,0 0.002,0.002 0.002,0.002 0.068,-0.0758 0.10625,-0.13407 0.14258,-0.17774 z m -0.14258,0.17774 c 0.0137,0.0202 0.0273,0.0404 0.041,0.0605 -10e-4,-0.0427 -0.0116,-0.0603 -0.041,-0.0605 z m -0.63476,0.11523 c -0.002,0.002 -0.005,0.004 -0.008,0.006 0.0107,0 0.0206,9.4e-4 0.0312,0.002 -0.002,-0.003 -2.9e-4,-0.005 -0.002,-0.008 -0.004,-0.007 -0.0154,0.003 -0.0215,0 z m -0.008,0.006 c -0.0206,1e-5 -0.0402,-0.006 -0.0605,-0.002 -0.0128,0.008 -0.0241,0.0148 -0.0371,0.0234 5.7e-4,0.008 -0.0115,0.03 -0.0234,0.0742 0,0 0,0.002 0,0.002 0.0406,-0.0324 0.0821,-0.0629 0.12109,-0.0977 z m -0.12109,0.0977 c -0.005,0.004 -0.009,0.008 -0.0137,0.0117 -0.002,2.4e-4 0.0187,-0.002 0.0137,0 7.4e-4,-0.003 -7.6e-4,-0.009 0,-0.0117 z m -0.0137,0.0117 c 0.006,-9e-4 -0.006,3.4e-4 -0.0508,0.002 -0.0185,0.0347 -0.0544,0.0792 -0.0332,0.0664 0.031,-0.0187 0.0554,-0.0462 0.084,-0.0684 z m -0.084,0.0684 c -0.0102,0.006 -0.0231,0.0177 -0.0352,0.0254 -0.0231,0.0504 -0.0393,0.10084 -0.0195,0.14843 8.8e-4,0.002 0.003,0.002 0.004,0.004 0.0487,-0.0504 0.0987,-0.0988 0.14453,-0.15234 10e-4,-0.0307 -0.002,-0.0665 0.004,-0.0899 -0.0133,0.005 -0.0701,0.049 -0.0977,0.0645 z m 0.0332,-0.0664 c 0.0146,-0.0274 0.008,-0.0448 0.0254,-0.0527 0.018,-0.008 0.041,-0.0229 0.0625,-0.0371 -7.2e-4,-0.0105 -0.0233,0.002 -0.10547,0.0605 -0.003,0.01 -0.008,0.0197 -0.0117,0.0293 0.005,0 0.0105,0 0.0156,0 0.0159,5.8e-4 0.002,4.3e-4 0.0137,0 z m -0.44531,0.0117 c -0.0396,6.6e-4 -0.0801,-0.007 -0.11329,0.01 -10e-4,0.0115 3e-4,0.0192 -0.004,0.0352 0.0378,0.002 0.0777,0.002 0.10547,0.0254 0.0127,0.0107 0.0257,0.0237 0.0391,0.0352 0.11166,-0.0365 0.11957,-0.0482 0.0312,-0.10352 0.005,-0.0148 -0.0335,-0.004 -0.0586,-0.002 z m -0.11719,0.0449 c -0.0147,-9.1e-4 -0.0269,-0.01 -0.041,-0.01 -0.0462,10e-4 -0.0738,0.009 -0.10351,0.0176 -0.013,0.0141 -0.0209,0.0282 -0.0332,0.043 0.003,0.002 0.003,0.006 0.006,0.008 0.002,7.5e-4 0.007,0.003 0.01,0.004 0.004,-5.6e-4 0.0102,-0.001 0.0137,-0.002 0.0326,-0.007 0.12298,-0.0236 0.0996,0 -0.0113,0.0114 -0.0149,0.0113 -0.0254,0.0215 0.003,0.003 0.007,3.2e-4 0.01,0.004 0.0142,0.007 0.0586,0.0255 0.043,0.0215 -0.0315,-0.008 -0.0386,-0.0117 -0.0605,-0.0195 -0.0176,0.0168 -0.0275,0.0236 -0.043,0.0371 0.005,0.008 0.0132,0.0147 0.0176,0.0234 0.05,-0.0172 0.0797,-0.0275 0.11523,-0.0391 -0.003,-0.0338 -0.003,-0.0702 -0.01,-0.10156 10e-4,-0.004 10e-4,-0.004 0.002,-0.008 z m -0.10742,0.14844 c -0.034,0.0117 -0.0367,0.0125 -0.0781,0.0273 -0.0509,0.0378 -0.0909,0.0644 -0.11719,0.0723 -0.006,0.0376 -0.0191,0.0787 -0.0176,0.10547 1.5e-4,0.003 0.004,0.005 0.004,0.008 0.0497,-0.0151 0.0988,-0.0328 0.15039,-0.0391 0.0292,-0.005 0.0585,-0.0105 0.0879,-0.0137 0.0128,-0.001 0.0158,-0.003 0.0215,-0.002 -0.01,-0.058 -0.0268,-0.10966 -0.0508,-0.1582 z m -0.0781,0.0273 c 0.0179,-0.0132 0.0389,-0.032 0.0606,-0.0508 -0.009,-0.0155 -0.019,-0.0313 -0.0312,-0.0449 -0.0264,0.0121 -0.0507,0.0249 -0.0742,0.0351 -0.0385,0.0546 -0.0614,0.0973 -0.0312,0.0859 0.0476,-0.0178 0.036,-0.0109 0.0762,-0.0254 z m 0.10352,-0.0879 c 0.003,-0.003 0.005,-0.003 0.008,-0.006 -0.0165,-0.0155 -0.0372,-0.0174 -0.0605,-0.01 0.0145,0.005 0.0338,0.009 0.0527,0.0156 z m -0.0899,-0.0293 c -0.003,-8.3e-4 -0.009,-10e-4 -0.0117,-0.002 -0.003,0.003 -0.005,0.006 -0.008,0.01 0.008,-7e-4 0.0147,-0.003 0.0215,-0.004 -10e-4,-10e-4 -8.7e-4,-0.003 -0.002,-0.004 z m -0.0117,-0.002 c 0.002,-0.002 0.004,-0.004 0.006,-0.006 0,0 -0.002,-0.002 -0.002,-0.002 -0.0161,-0.0132 -0.0309,-0.005 -0.0449,0.002 -0.003,0.003 -0.007,0.005 -0.01,0.008 0.0127,2.8e-4 0.0385,-0.005 0.0508,-0.002 z m -0.0508,0.002 c -0.003,-6e-5 -0.009,0.004 -0.0117,0.004 -0.003,0.004 -0.007,0.0108 -0.01,0.0156 0.006,-0.008 0.015,-0.0125 0.0215,-0.0195 z m -0.38867,0.0703 c -0.0166,-0.007 -0.0373,2.1e-4 -0.0547,0.002 0.0208,-0.006 0.0395,2.3e-4 0.0586,0 -10e-4,-4.8e-4 -0.003,-0.002 -0.004,-0.002 z m 5.27734,-0.9961 c 0.0798,-0.0471 0.0111,-0.009 -0.0273,0.0137 0.001,0.001 0.0404,0.006 0.043,0.006 0.004,-0.003 0.006,-0.008 -0.0156,-0.0195 z m 0.0156,0.0195 c -4.6e-4,3.9e-4 0.003,0.002 0.002,0.002 0.008,9.8e-4 0.0159,-8e-4 0.0234,0 -0.006,3.2e-4 -0.0239,-0.002 -0.0254,-0.002 z m -0.043,-0.006 c -0.002,-0.003 0.0345,-3.1e-4 -0.0977,-0.01 -0.0201,-0.002 0.0362,0.0111 0.0859,0.0176 0.003,-10e-4 -0.006,0.002 0.0117,-0.008 z m -0.0117,0.008 c -0.006,0.002 -0.002,0.002 -0.008,0.004 0.007,-7.2e-4 0.0142,-0.003 0.0215,-0.004 -0.005,-5.5e-4 -0.008,7.6e-4 -0.0137,0 z m -2.28515,0.17187 c -0.0209,10e-4 -0.0525,0.0276 -0.0918,0.0625 0.012,-5.5e-4 0.0178,-0.004 0.0312,-0.004 0.0211,3.5e-4 0.0387,0.014 0.0606,0.0176 0.0219,-0.0572 0.0174,-0.0774 0,-0.0762 z m 0.80273,0.0586 c -0.0129,0.0187 -0.0265,0.0344 -0.0391,0.0527 0.005,-0.003 0.008,-0.003 0.0117,-0.006 0.014,-0.0116 0.0376,-0.0618 0.0273,-0.0469 z m 0.0644,0.0703 c -0.0561,0.003 -0.0701,0.003 -0.0918,0.002 -0.011,0.006 -0.0222,0.005 -0.0332,0.01 -0.0204,0.0289 -0.0398,0.0602 -0.0625,0.0859 0.0425,-0.007 0.081,-0.0187 0.12696,-0.0332 0.0547,-0.0173 0.10163,-0.0131 0.15039,-0.0449 0.0114,-0.006 0.0217,-0.009 0.0312,-0.0137 -0.0117,7e-5 -0.0234,-2.3e-4 -0.0352,0 -8.1e-4,-1e-5 -0.13921,1.4e-4 -0.0859,-0.006 z m -1.40039,0.0117 c 0.0223,0.007 0.0455,0.0126 0.0684,0.0176 0.0143,0.003 -0.0272,-0.0108 -0.041,-0.0156 -0.0101,-0.003 -0.0194,-0.002 -0.0274,-0.002 z m 0.17969,0.13086 c -0.0174,0.0133 -0.0179,0.007 -0.0371,0.0234 -0.0222,0.0187 -0.0144,0.0559 -0.0215,0.084 0.0273,-0.0456 0.0404,-0.0702 0.0586,-0.10742 z m 0.002,0.10742 c -0.0522,-0.0203 -0.0167,0.0438 0.0352,0.11523 0.0459,-0.0101 0.0903,-0.026 0.13672,-0.0293 -0.0601,-0.0291 -0.0729,-0.0475 -0.17188,-0.0859 z m -0.59179,0.008 c -0.002,0.003 -0.004,0.006 -0.006,0.01 0.004,-0.004 0.004,-0.006 0.008,-0.01 0,0 -0.002,0 -0.002,0 z m -0.67969,0.17383 c -0.007,0.0235 -0.006,0.0485 -0.0117,0.0723 0.0203,-0.0228 0.0413,-0.0446 0.0625,-0.0664 -0.0203,-0.007 -0.0462,-0.0225 -0.0508,-0.006 z m 0.0762,0.01 c -0.0115,0.091 -0.0266,0.18186 -0.0352,0.27344 0.002,-2.6e-4 0.002,-0.002 0.004,-0.002 0.0227,-0.0372 0.0782,-0.12569 0.0918,-0.14258 -0.009,-0.0355 -0.0202,-0.0712 -0.0371,-0.11133 -0.007,-0.006 -0.0166,-0.011 -0.0234,-0.0176 z m 0.43555,0.10743 c -0.0188,0.006 -0.0319,0.0116 -0.0527,0.0176 0.0104,0.0137 0.0208,0.0273 0.0312,0.041 0.0123,-0.003 0.0253,-0.003 0.0371,-0.008 0.003,-10e-4 0.006,-0.003 0.01,-0.004 -0.007,-0.0163 -0.0177,-0.0308 -0.0254,-0.0469 z m -0.82617,0.10156 c -0.0166,0.0141 -0.0169,0.007 -0.0352,0.0234 -0.0215,0.0198 -0.008,0.059 -0.0137,0.0879 1.6e-4,6.1e-4 -1.5e-4,0.001 0,0.002 0.0164,-0.002 0.0367,-0.005 0.0488,-0.006 -0.006,-0.0376 -0.005,-0.0734 0,-0.10742 z m -0.73633,0.15625 c -0.0413,0.003 -0.0376,-0.0132 -0.043,0.0937 0.0222,-0.0422 0.0285,-0.0592 0.043,-0.0937 z m -0.42383,0.1875 c -0.0253,0.0513 -0.0257,0.0718 -0.041,0.11133 0.009,-0.009 0.0175,-0.0177 0.0274,-0.0254 0.015,-0.0117 0.0367,-0.0173 0.0547,-0.0274 -0.0112,-0.048 -0.0271,-0.0868 -0.041,-0.0586 z"
     id="path6019"
     inkscape:connector-curvature="0" />
  <path
     id="path6015-7"
     d="m 897.61074,199.40536 -5.34766,0.20899 0.10547,33.02929 -3.77539,7.23438 -28.73047,16.56641 2.83203,4.61523 28.31055,-16.56836 2.30664,0 -1.37891,58.59961 6.76953,0 -1.30078,-58.49414 2.6211,-0.10547 28.20507,15.9375 2.72657,-4.40234 -28.625,-16.46289 -4.50782,-6.81446 -0.21093,-33.34375 z"
     style="fill:none;fill-opacity:1;fill-rule:evenodd;stroke:#59c2c2;stroke-width:1.5;stroke-linecap:butt;stroke-linejoin:miter;stroke-miterlimit:4;stroke-dasharray:none;stroke-opacity:1"
     inkscape:connector-curvature="0" />
  <path
     id="path6017-5"
     d="m 947.9359,148.55437 7.5455,-7.54555 45.2733,43.59647 15.3707,3.91251 60.0846,-17.88574 3.0742,10.34019 -60.0849,17.04732 -8.1043,8.94289 3.3535,152.02872 -14.5323,-0.27945 2.5153,-125.20014 -9.2224,36.88934 -10.0605,-2.51519 15.3704,-60.08488 -5.0304,-15.65002 z"
     style="fill:none;fill-opacity:1;fill-rule:evenodd;stroke:#59c2c2;stroke-width:2;stroke-linecap:butt;stroke-linejoin:miter;stroke-opacity:1;stroke-miterlimit:4;stroke-dasharray:none" />
  <path
     id="path6019-3"
     d="m 1135.6229,362.30489 0.469,18.64391 -13.6843,-0.25342 0.5457,-24.33075 m 0,0 2.4952,-111.2462 -8.3627,-7.34904 -55.4978,-11.40368 2.0273,-8.36268 55.2445,10.39 13.1775,-4.81488 37.7588,-43.08053 6.5888,6.08196 -36.9985,43.08053 -2.0274,14.44464 18.2459,52.7103 -8.8695,3.54782 -13.6844,-40.29298 2.5719,102.235"
     style="fill:none;fill-opacity:1;fill-rule:evenodd;stroke:#59c2c2;stroke-width:2;stroke-linecap:butt;stroke-linejoin:miter;stroke-miterlimit:4;stroke-dasharray:none;stroke-opacity:1"
     inkscape:connector-curvature="0"
     sodipodi:nodetypes="ccccccccccccccccccc" />
  <path
     id="path6015-7-1"
     d="m 867.92561,530.44861 -5.34767,0.20899 0.10547,33.02929 -3.77539,7.23438 -28.73047,16.56641 2.83203,4.61523 28.31055,-16.56836 2.30664,0 -1.37891,58.59961 6.76954,0 -1.30078,-58.49414 2.6211,-0.10547 28.20507,15.9375 2.72657,-4.40234 -28.625,-16.46289 -4.50782,-6.81446 -0.21093,-33.34375 z"
     style="fill:#59c1c1;fill-opacity:1;fill-rule:evenodd;stroke:none;stroke-width:2;stroke-linecap:butt;stroke-linejoin:miter;stroke-miterlimit:4;stroke-dasharray:none;stroke-opacity:1" />
  <path
     id="path6017-5-2"
     d="m 917.64471,480.68853 7.5455,-7.54555 45.2733,43.59647 15.3707,3.91251 60.08459,-17.88574 3.0742,10.34019 -60.08489,17.04732 -8.1043,8.94289 3.3535,152.02872 -14.5323,-0.27945 2.5153,-125.20014 -9.2224,36.88934 -10.0605,-2.51519 15.3704,-60.08488 -5.0304,-15.65002 z"
     style="fill:#59c1c1;fill-opacity:1;fill-rule:evenodd;stroke:none;stroke-width:2;stroke-linecap:butt;stroke-linejoin:miter;stroke-miterlimit:4;stroke-dasharray:none;stroke-opacity:1" />
  <path
     id="path6019-3-7"
     d="m 1031.2968,558.49987 2.0273,-8.36268 55.2445,10.39 13.1775,-4.81488 37.7588,-43.08053 6.5888,6.08196 -36.9985,43.08053 -2.0274,14.44464 18.2459,52.7103 -8.8695,3.54782 -13.6844,-40.29298 3.0409,120.87891 -13.6843,-0.25342 3.0409,-135.57695 -8.3627,-7.34904 z"
     style="fill:#59c1c1;fill-opacity:1;fill-rule:evenodd;stroke:none;stroke-width:2;stroke-linecap:butt;stroke-linejoin:miter;stroke-miterlimit:4;stroke-dasharray:none;stroke-opacity:1" />
  <path
     id="path6087-0"
     d="m 767.18471,640.95229 c 147.1033,-19.47996 319.75789,11.58849 466.39089,78.1307"
     style="fill:none;fill-rule:evenodd;stroke:#59c1c1;stroke-width:1.70000005;stroke-linecap:butt;stroke-linejoin:miter;stroke-miterlimit:4;stroke-dasharray:none;stroke-opacity:1" />
  <path
     style="fill:none;fill-rule:evenodd;stroke:#59c1c1;stroke-width:2;stroke-linecap:butt;stroke-linejoin:miter;stroke-miterlimit:4;stroke-dasharray:none;stroke-opacity:1"
     d="m 466.98719,390.0218 c 23.78839,-8.6042 47.01679,-16.6208 69.72939,-24.02709"
     id="path8230" />
  <path
     style="fill:none;fill-rule:evenodd;stroke:#58bfbf;stroke-width:2;stroke-linecap:butt;stroke-linejoin:miter;stroke-miterlimit:4;stroke-dasharray:none;stroke-opacity:0.1254902"
     d="m 536.71658,365.99471 c 21.46882,-7.00071 42.81963,-13.79898 63.40408,-19.68993"
     id="path8236"
     inkscape:connector-curvature="0"
     sodipodi:nodetypes="cc" />
  <path
     style="fill:none;fill-rule:evenodd;stroke:#58bfbf;stroke-width:2;stroke-linecap:butt;stroke-linejoin:miter;stroke-miterlimit:4;stroke-dasharray:none;stroke-opacity:0.1254902"
     d="m 616.90174,342.09198 c 41.63839,-11.38467 82.41829,-20.72563 121.04542,-27.3467"
     id="path8242"
     inkscape:connector-curvature="0"
     sodipodi:nodetypes="cc" />
  <path
     style="fill:none;fill-rule:evenodd;stroke:#58bfbf;stroke-width:2;stroke-linecap:butt;stroke-linejoin:miter;stroke-miterlimit:4;stroke-dasharray:none;stroke-opacity:0.1254902"
     d="m 749.53118,313.02135 c 16.01861,-2.5361 31.78228,-4.60278 47.29666,-6.16317"
     id="path8228"
     inkscape:connector-curvature="0"
     sodipodi:nodetypes="cc" />
  <path
     style="fill:none;fill-rule:evenodd;stroke:#59c1c1;stroke-width:2;stroke-linecap:butt;stroke-linejoin:miter;stroke-miterlimit:4;stroke-dasharray:none;stroke-opacity:1"
     d="m 796.82784,306.85818 c 71.89506,-7.23101 138.64566,-4.86439 203.54826,8.90126"
     id="path8248"
     inkscape:connector-curvature="0"
     sodipodi:nodetypes="cc" />
  <path
     style="fill:none;fill-rule:evenodd;stroke:#59c1c1;stroke-width:2;stroke-linecap:butt;stroke-linejoin:miter;stroke-miterlimit:4;stroke-dasharray:none;stroke-opacity:1"
     d="m 1013.7346,318.94586 c 36.9173,8.70972 73.1232,21.06867 109.0518,37.29991"
     id="path8254"
     inkscape:connector-curvature="0"
     sodipodi:nodetypes="cc" />
  <path
     style="fill:none;fill-rule:evenodd;stroke:#59c1c1;stroke-width:2;stroke-linecap:butt;stroke-linejoin:miter;stroke-miterlimit:4;stroke-dasharray:none;stroke-opacity:1"
     d="m 1135.5972,362.20301 c 18.1127,8.66311 36.1679,18.3204 54.2214,29.0006"
     id="path6348-7"
     inkscape:connector-curvature="0"
     sodipodi:nodetypes="cc" />
  <path
     style="fill:none;fill-rule:evenodd;stroke:#59c3c3;stroke-width:2;stroke-linecap:butt;stroke-linejoin:miter;stroke-miterlimit:4;stroke-dasharray:none;stroke-opacity:1"
     d="m 476.60607,209.09091 c 13.52463,-32.72124 31.30528,-83.01332 95.51516,-104.24242 L 560.00002,77.212118 c -23.69751,4.48842 -85.35766,66.397782 -83.39395,131.878792 z"
     id="path8272"
     inkscape:connector-curvature="0"
     sodipodi:nodetypes="cccc" />
</svg>
