<?xml version="1.0" encoding="UTF-8" standalone="no"?>
<svg
   xmlns:dc="http://purl.org/dc/elements/1.1/"
   xmlns:cc="http://creativecommons.org/ns#"
   xmlns:rdf="http://www.w3.org/1999/02/22-rdf-syntax-ns#"
   xmlns:svg="http://www.w3.org/2000/svg"
   xmlns="http://www.w3.org/2000/svg"
   viewBox="0 0 1280 420"
   height="420"
   width="1280"
   version="1.1"
   id="svg4190">
  <metadata
     id="metadata4196">
    <rdf:RDF>
      <cc:Work
         rdf:about="">
        <dc:format>image/svg+xml</dc:format>
        <dc:type
           rdf:resource="http://purl.org/dc/dcmitype/StillImage" />
        <dc:title></dc:title>
      </cc:Work>
    </rdf:RDF>
  </metadata>
  <defs
     id="defs4194" />
  <g
     style="stroke-width:2;stroke-miterlimit:4;stroke-dasharray:none"
     id="g6251">
    <path
       style="fill:none;fill-rule:evenodd;stroke:#59c3c3;stroke-width:2;stroke-linecap:butt;stroke-linejoin:miter;stroke-opacity:1;stroke-miterlimit:4;stroke-dasharray:none"
       d="m 188.10642,203.27577 c 18.57566,-10.9862 30.13388,-35.73523 52.14063,-39.1688 20.18744,0.28803 40.41546,3.2274 60.52605,2.74597 27.14678,7.62343 55.37334,10.19697 82.36652,18.28637 16.0527,4.04519 38.49839,5.97372 48.46752,-10.24157 7.70032,-24.71936 -25.71815,-24.72398 -40.66065,-31.4739 -22.37448,-9.15315 -46.53913,-13.36094 -68.15728,-24.31584 -20.40713,-7.60038 -42.98765,-3.72439 -63.25073,-11.32709 -20.58085,-2.65135 -41.86244,-1.38303 -61.46675,-9.46815 C 175.18504,89.94674 151.90043,82.89775 128.35963,76.70901 106.76254,69.92384 86.30952,59.982 65.634739,51.06892 57.440084,48.69148 48.711825,47.97491 40.983101,44.13477"
       id="path4222" />
    <path
       style="fill:none;fill-rule:evenodd;stroke:#59c3c3;stroke-width:2;stroke-linecap:butt;stroke-linejoin:miter;stroke-opacity:1;stroke-miterlimit:4;stroke-dasharray:none"
       d="m 235.60557,164.69825 c 10.54907,21.41521 32.32811,33.95887 46.14811,52.57241 8.14487,20.4506 8.87467,43.03386 17.16909,63.42751 4.09977,19.8177 9.18485,39.78259 8.33941,60.18193 11.52158,14.75018 1.47798,36.47108 -18.62757,27.54433 -20.49838,-5.76401 -29.79067,-27.56236 -30.00506,-47.26276 -2.9596,-20.38153 -2.78189,-44.14446 -16.79283,-60.5742"
       id="path4224" />
    <path
       style="fill:none;fill-rule:evenodd;stroke:#59c3c3;stroke-width:2;stroke-linecap:butt;stroke-linejoin:miter;stroke-opacity:1;stroke-miterlimit:4;stroke-dasharray:none"
       d="m 198.23584,199.90262 c 7.80542,6.19593 8.97351,16.72131 13.27538,25.09086"
       id="path4226" />
    <path
       style="fill:none;fill-rule:evenodd;stroke:#59c3c3;stroke-width:2;stroke-linecap:butt;stroke-linejoin:miter;stroke-opacity:1;stroke-miterlimit:4;stroke-dasharray:none"
       d="m 102.52199,112.88329 c 8.88552,25.12676 28.81886,43.97926 45.78548,63.72411 20.91535,19.15736 45.84167,33.51739 65.72995,53.83415 19.67346,8.14135 40.5937,36.61479 15.03984,51.42339 -22.07764,12.52683 -45.50411,-3.10704 -63.8094,-15.15775 -15.41749,-8.30109 -27.36882,-20.43811 -39.82402,-32.40159 -12.67447,-9.74337 -24.87768,-21.32766 -39.95133,-27.01971 -9.741567,-2.71406 -19.937775,-2.73853 -29.868772,-4.34488"
       id="path4228" />
    <path
       style="fill:none;fill-rule:evenodd;stroke:#59c3c3;stroke-width:2;stroke-linecap:butt;stroke-linejoin:miter;stroke-opacity:1;stroke-miterlimit:4;stroke-dasharray:none"
       d="m 213.7992,238.10444 c -26.28437,-2.50672 -29.12451,35.20262 -2.98762,37.12154 23.54545,6.93861 31.80186,-24.69367 10.17141,-33.34942 -2.24518,-1.51775 -4.65677,-2.79148 -7.18379,-3.77212 z"
       id="path4230" />
    <path
       style="fill:none;fill-rule:evenodd;stroke:#59c3c3;stroke-width:2;stroke-linecap:butt;stroke-linejoin:miter;stroke-opacity:1;stroke-miterlimit:4;stroke-dasharray:none"
       d="m 172.50421,213.25174 c -5.66394,4.91519 -11.20633,11.23683 -11.56336,19.11985"
       id="path4232" />
    <path
       style="fill:none;fill-rule:evenodd;stroke:#59c3c3;stroke-width:2;stroke-linecap:butt;stroke-linejoin:miter;stroke-opacity:1;stroke-miterlimit:4;stroke-dasharray:none"
       d="m 197.54531,285.29171 c -2.67426,17.14292 9.64947,34.56376 2.06656,51.14125 -16.5019,17.34922 -39.65059,-6.12182 -39.17197,-25.02258 -3.12898,-24.04419 -16.57003,-45.07808 -27.31891,-66.27499 -2.47018,-3.67535 -5.24738,-7.15335 -8.382,-10.28549"
       id="path4234" />
    <path
       style="fill:none;fill-rule:evenodd;stroke:#59c3c3;stroke-width:2;stroke-linecap:butt;stroke-linejoin:miter;stroke-opacity:1;stroke-miterlimit:4;stroke-dasharray:none"
       d="m 258.89782,317.44477 c -10.23827,14.41073 0.41178,34.734 -11.10469,48.46167 -22.48012,14.47235 -38.16636,-19.06468 -31.40031,-37.86469 4.44564,-14.16915 -1.7786,-27.3267 -6.87084,-40.23262"
       id="path4236" />
    <path
       style="fill:none;fill-rule:evenodd;stroke:#59c3c3;stroke-width:2;stroke-linecap:butt;stroke-linejoin:miter;stroke-opacity:1;stroke-miterlimit:4;stroke-dasharray:none"
       d="m 235.19804,293.16405 c -5.37521,5.2341 -11.88541,9.1727 -17.00825,14.68244"
       id="path4238" />
    <path
       style="fill:none;fill-rule:evenodd;stroke:#59c3c3;stroke-width:2;stroke-linecap:butt;stroke-linejoin:miter;stroke-opacity:1;stroke-miterlimit:4;stroke-dasharray:none"
       d="m 162.19509,277.88704 c -3.60467,1.86316 -7.06863,4.67391 -8.36678,8.67543"
       id="path4240" />
    <path
       style="fill:none;fill-rule:evenodd;stroke:#59c3c3;stroke-width:2;stroke-linecap:butt;stroke-linejoin:miter;stroke-opacity:1;stroke-miterlimit:4;stroke-dasharray:none"
       d="m 257.4712,299.97583 c -2.56354,-6.15926 6.18805,-6.50054 9.46462,-8.70998"
       id="path4242" />
    <path
       style="fill:none;fill-rule:evenodd;stroke:#59c3c3;stroke-width:2;stroke-linecap:butt;stroke-linejoin:miter;stroke-opacity:1;stroke-miterlimit:4;stroke-dasharray:none"
       d="m 232.02973,241.66259 c 5.56271,1.41619 10.76212,8.09783 16.84917,4.39622"
       id="path4244" />
    <path
       style="fill:none;fill-rule:evenodd;stroke:#59c3c3;stroke-width:2;stroke-linecap:butt;stroke-linejoin:miter;stroke-opacity:1;stroke-miterlimit:4;stroke-dasharray:none"
       d="m 178.19076,152.0541 c -9.45352,11.78225 -26.9219,10.25182 -38.58825,17.99392"
       id="path4246" />
    <path
       style="fill:none;fill-rule:evenodd;stroke:#59c3c3;stroke-width:2;stroke-linecap:butt;stroke-linejoin:miter;stroke-opacity:1;stroke-miterlimit:4;stroke-dasharray:none"
       d="m 203.29084,167.59757 c -19.45962,-6.7052 -39.82693,-0.16198 -59.46967,1.42294"
       id="path4248" />
    <path
       style="fill:none;fill-rule:evenodd;stroke:#59c3c3;stroke-width:2;stroke-linecap:butt;stroke-linejoin:miter;stroke-opacity:1;stroke-miterlimit:4;stroke-dasharray:none"
       d="M 191.55833,178.70601 C 177.295,172.2744 161.2262,173.08711 145.98047,173.65107"
       id="path4250" />
    <path
       style="fill:none;fill-rule:evenodd;stroke:#59c3c3;stroke-width:2;stroke-linecap:butt;stroke-linejoin:miter;stroke-opacity:1;stroke-miterlimit:4;stroke-dasharray:none"
       d="m 360.50639,158.17823 c -2.10593,5.32432 5.7811,14.7211 -2.37145,17.07871"
       id="path4252" />
    <path
       style="fill:none;fill-rule:evenodd;stroke:#59c3c3;stroke-width:2;stroke-linecap:butt;stroke-linejoin:miter;stroke-opacity:1;stroke-miterlimit:4;stroke-dasharray:none"
       d="m 298.46975,142.00652 c -3.18407,8.29448 2.59247,17.38656 -0.31619,25.51611"
       id="path4254" />
    <path
       style="fill:none;fill-rule:evenodd;stroke:#59c3c3;stroke-width:2;stroke-linecap:butt;stroke-linejoin:miter;stroke-opacity:1;stroke-miterlimit:4;stroke-dasharray:none"
       d="m 164.3156,102.14935 c 3.64517,2.89353 27.3134,23.77911 7.40563,7.82165"
       id="path4256" />
    <path
       style="fill:none;fill-rule:evenodd;stroke:#59c3c3;stroke-width:2;stroke-linecap:butt;stroke-linejoin:miter;stroke-opacity:1;stroke-miterlimit:4;stroke-dasharray:none"
       d="m 48.966789,140.90409 c -10.340214,16.81908 12.038049,29.74642 12.847527,45.68603"
       id="path4258" />
    <path
       style="fill:none;fill-rule:evenodd;stroke:#59c3c3;stroke-width:2;stroke-linecap:butt;stroke-linejoin:miter;stroke-opacity:1;stroke-miterlimit:4;stroke-dasharray:none"
       d="M 57.591455,201.71342 C 37.916067,197.50284 18.348012,192.3524 -0.226504,184.51411"
       id="path4262" />
  </g>
  <rect
     y="133.93762"
     x="-407.18088"
     height="61.187702"
     width="190.36174"
     id="rect5289-6"
     style="fill:#a2faa3;fill-opacity:1;fill-rule:evenodd;stroke:none;stroke-width:4.05000019;stroke-miterlimit:4;stroke-dasharray:none;stroke-opacity:1" />
  <rect
     y="201.40619"
     x="-407.18088"
     height="61.187702"
     width="190.36174"
     id="rect5289-6-7"
     style="fill:#88a0a8;fill-opacity:1;fill-rule:evenodd;stroke:none;stroke-width:4.05000019;stroke-miterlimit:4;stroke-dasharray:none;stroke-opacity:1" />
  <rect
     y="268.87469"
     x="-407.18088"
     height="61.187702"
     width="190.36174"
     id="rect5289-6-7-5"
     style="fill:#595358;fill-opacity:1;fill-rule:evenodd;stroke:none;stroke-width:4.05000019;stroke-miterlimit:4;stroke-dasharray:none;stroke-opacity:1" />
  <rect
     y="336.3432"
     x="-407.18088"
     height="61.187702"
     width="190.36174"
     id="rect5289-6-7-5-3"
     style="fill:#857f74;fill-opacity:1;fill-rule:evenodd;stroke:none;stroke-width:4.05000019;stroke-miterlimit:4;stroke-dasharray:none;stroke-opacity:1" />
  <rect
     y="66.469101"
     x="-407.18088"
     height="61.187702"
     width="190.36174"
     id="rect5289-6-7-5-3-3"
     style="fill:#59c3c3;fill-opacity:1;fill-rule:evenodd;stroke:none;stroke-width:4.05000019;stroke-miterlimit:4;stroke-dasharray:none;stroke-opacity:1" />
  <g
     style="stroke-width:2;stroke-miterlimit:4;stroke-dasharray:none"
     id="g6297">
    <path
       style="fill:none;fill-rule:evenodd;stroke:#59c3c3;stroke-width:2;stroke-linecap:butt;stroke-linejoin:miter;stroke-miterlimit:4;stroke-dasharray:none;stroke-opacity:1"
       d="m 530.75,62.500001 c 30.71618,-23.028985 70.06763,-29.839127 107.59236,-30.612413 47.3809,2.574456 99.25881,14.76955 134.57032,47.230267 31.35765,39.057475 21.04763,17.727244 41.85642,64.029625 1.54268,3.93219 2.98315,7.90324 4.4809,11.85252"
       id="path5735" />
    <path
       style="fill:none;fill-rule:evenodd;stroke:#59c3c3;stroke-width:2;stroke-linecap:butt;stroke-linejoin:miter;stroke-miterlimit:4;stroke-dasharray:none;stroke-opacity:1"
       d="m 818.625,154.375 c 6.99784,36.81886 8.59079,75.36255 -2.30015,111.60307 -14.69948,43.16697 -44.32751,81.90792 -85.20808,103.15366 C 663.009,404.63659 573.76882,399.09071 513.40161,350.46993 498.85519,337.15654 484.5299,323.22933 473.875,306.5"
       id="path5737" />
    <path
       style="fill:none;fill-rule:evenodd;stroke:#59c3c3;stroke-width:2;stroke-linecap:butt;stroke-linejoin:miter;stroke-miterlimit:4;stroke-dasharray:none;stroke-opacity:1"
       d="m 474,307 c -13.25248,-26.24081 -26.1979,-53.97068 -26.41939,-83.95237 -4.45632,-26.61199 5.31088,-52.16633 13.53324,-76.96625 10.67057,-29.23911 30.64752,-54.667702 56.09244,-72.544063 2.9898,-6.002785 10.05556,-7.765281 14.41871,-12.412316"
       id="path5739" />
    <path
       style="fill:none;fill-rule:evenodd;stroke:#59c3c3;stroke-width:2;stroke-linecap:butt;stroke-linejoin:miter;stroke-miterlimit:4;stroke-dasharray:none;stroke-opacity:1"
       d="m 475.90368,203.24055 c -1.90829,-16.95496 7.9732,-32.57597 6.88374,-49.48444 8.70176,-12.74976 18.53161,-24.84949 25.24801,-38.82557 9.60563,-14.47298 22.91127,-27.417624 39.75969,-32.824954 9.88725,1.781182 18.35221,10.625485 18.80173,20.807874 -3.63805,8.1803 -14.36149,6.30469 -20.93746,10.53635 -11.14561,4.09815 -15.87815,15.37068 -24.02145,22.96922 -11.79065,11.54206 -24.50369,23.25918 -29.92307,39.34226 -4.52214,9.57462 -10.60301,18.28571 -15.81119,27.47926 z"
       id="path5767" />
  </g>
  <path
     id="path6015"
     d="m 791.26489,235.17057 c 4.44791,-18.7449 -23.88452,-17.62458 -33.87852,-27.84675 -16.72419,-10.2128 -15.83662,-31.27656 -14.10403,-48.21453 3.72558,-6.49729 -2.62717,-27.61433 -8.31389,-13.52767 -3.21858,16.99916 5.12217,35.37343 -2.91307,51.63292 -6.99396,11.25436 -20.65805,14.63126 -31.11059,21.80118 -5.71763,3.29702 -11.43526,6.59405 -17.15289,9.89108 13.34317,13.66711 25.61186,-10.19596 38.40743,-13.40798 12.22314,-11.0279 18.1024,6.0819 13.67271,15.97311 -0.82151,34.91434 -1.64303,69.82869 -2.46454,104.74303 13.9315,5.23059 12.89786,-13.37981 11.70584,-22.11175 -0.77006,-34.60762 -1.54013,-69.21524 -2.3102,-103.82286 13.94355,2.36442 24.61359,12.65789 37.16937,18.5094 3.76413,2.12694 7.52825,4.25388 11.29238,6.38082 z"
     style="fill:#59c1c1;fill-opacity:0.12871291;fill-rule:evenodd;stroke:none;stroke-width:0.46622625px;stroke-linecap:butt;stroke-linejoin:miter;stroke-opacity:1" />
  <path
     id="path6017"
     d="m 536.16797,100.5 c -0.013,0.0557 -0.0215,0.11242 -0.0352,0.16797 -0.006,0.0234 -0.017,0.0452 -0.0234,0.0684 0.0696,0.12982 0.078,0.0115 0.0586,-0.23633 z m 7.86328,7.20312 c -0.10864,0.0371 -0.21756,0.0725 -0.32617,0.10938 0.0441,0.0439 0.0903,0.0854 0.13476,0.12891 0.0261,-0.0117 0.0619,-0.0291 0.082,-0.0371 0.0411,-0.0634 0.0784,-0.128 0.11132,-0.19336 -5.1e-4,-0.002 -10e-4,-0.005 -0.002,-0.008 z m 17.98633,0.45899 c -0.12415,0.0458 -0.24739,0.0944 -0.375,0.12891 -0.77232,0.20893 -1.1327,0.21311 -1.84766,0.46289 -0.6166,0.21542 -1.17193,0.58576 -1.72851,0.91797 -1.0351,0.75914 -1.99307,0.74003 -3.14649,0.95117 -0.54213,0.0992 -1.07147,0.26407 -1.61133,0.375 -1.79604,0.58795 0.68472,-0.18009 -1.36914,0.29492 -0.0793,0.0183 -0.12919,0.105 -0.20703,0.12891 -0.32531,0.0999 -0.66593,0.15033 -0.99414,0.24023 -0.74948,0.20529 -0.72421,0.22289 -1.39453,0.52539 -0.50624,0.19173 -1.04401,0.297 -1.55078,0.48828 -0.14422,0.0544 -0.27899,0.13262 -0.42188,0.18945 l 32.5625,31.16211 c 10.51379,6.97814 14.99372,19.10982 17.83008,30.88477 l -14.3164,55.96289 c -3.84963,8.45519 -7.1675,25.96761 7.54492,23.86719 l 11.76172,-47.04297 -3.20703,159.66211 18.53124,0.35547 -3.73632,-169.41602 c -0.48297,-12.49892 -2.78666,-28.22604 9.79492,-35.86328 l 56.11133,-15.91992 c 9.57044,-0.73549 25.98832,-7.2983 16.59179,-19.00586 l -62.98828,18.75 c -10.5405,5.63212 -22.53812,2.50292 -33.23633,-0.93164 l -38.59765,-37.16797 z"
     style="fill:#59c1c1;fill-opacity:0.12871291;fill-rule:evenodd;stroke:none;stroke-width:0.71277529px;stroke-linecap:butt;stroke-linejoin:miter;stroke-opacity:1" />
  <path
     id="path6019"
     d="m 707.74219,237.07422 -7.30078,8.33008 c -7.94707,7.75934 -13.39312,19.59967 -25.09961,22.13672 l -18.9961,-3.57227 c -5.58202,-0.12674 -16.31862,-6.61596 -17.43554,2.2832 l 13.86132,2.84766 c 8.97794,2.70158 20.05159,1.47602 26.76172,9.08008 l -1.25,55.64648 c 0.0143,-0.005 0.0284,-0.0102 0.043,-0.0137 0.0244,-0.006 0.0492,-0.0106 0.0742,-0.0117 0.0234,-10e-4 -0.003,0.0242 0.0293,0.004 0.0257,-0.0159 0.0462,-0.0373 0.0723,-0.0527 0.002,-10e-4 0.003,0.004 0.004,0.006 0.0201,-0.0186 0.0406,-0.0361 0.0606,-0.0547 0.007,-0.003 0.0155,-0.006 0.0215,-0.0117 0.0292,-0.0248 0.0538,-0.0546 0.084,-0.0781 0.0605,-0.0472 0.15193,-0.079 0.22071,-0.11133 0.0248,-0.007 0.0494,-0.0144 0.0742,-0.0215 0.0149,-0.003 0.0304,-0.004 0.0449,-0.008 0.0913,-0.0249 0.18089,-0.0609 0.27539,-0.0723 0.0292,-0.005 0.0585,-0.0105 0.0879,-0.0137 0.0394,-0.004 0.0293,0.008 0.0664,-0.004 0.0641,-0.0201 0.12663,-0.0519 0.19336,-0.0645 0.0575,-0.008 0.16604,-0.0233 0.21679,-0.0273 0.0353,-0.003 0.0721,-10e-4 0.10742,-0.004 0.0624,-0.005 0.0876,-0.0185 0.15235,-0.0293 0.016,-0.003 0.0326,-0.003 0.0488,-0.004 0.0285,-0.005 0.12865,-0.0214 0.14843,-0.0234 0.0129,-10e-4 0.0261,0.001 0.0391,0 0.0537,-0.003 0.10164,-0.0283 0.15429,-0.0371 0.0258,-0.0105 0.0518,-0.022 0.0781,-0.0312 0.022,-0.008 0.0441,-0.0128 0.0664,-0.0195 0.0136,-0.003 0.0279,-0.005 0.041,-0.01 0.0627,-0.0223 0.12093,-0.0547 0.1875,-0.0664 0.0282,-0.0113 0.0571,-0.0237 0.0859,-0.0332 0.17486,-0.0578 0.003,0.002 0.11523,-0.0254 0.0638,-0.0156 0.12679,-0.0374 0.18555,-0.0664 0.12201,-0.0393 0.25029,-0.0779 0.37891,-0.0801 0.105,-0.0283 -0.037,0.0129 0.125,-0.0469 0.0815,-0.0301 0.1698,-0.0411 0.2539,-0.0605 0.0243,-0.007 0.0497,-0.0139 0.0742,-0.0195 0.0136,-0.003 0.0276,-0.004 0.041,-0.008 0.071,-0.0202 0.13995,-0.0527 0.21093,-0.0723 0.026,-0.007 0.0515,-0.009 0.0781,-0.0137 0.0623,10e-4 0.10592,-0.024 0.16601,-0.043 0.0547,-0.0173 0.10163,-0.0131 0.15039,-0.0449 0.0576,-0.0297 0.0844,-0.0466 0.15821,-0.0684 0.009,-0.003 0.0196,0.003 0.0293,0.002 0.0657,-0.006 0.1172,-0.0527 0.18164,-0.0645 0.0476,-0.0142 0.0929,-0.0371 0.14063,-0.0508 0.0832,-0.0239 0.17155,-0.009 0.25,-0.0547 0.0508,-0.01 0.1093,-0.0231 0.16016,-0.0274 0.0152,-0.001 0.0296,0.002 0.0449,0.002 0.0632,-1e-5 0.1225,-0.0217 0.18359,-0.0352 0.0717,-0.007 0.14263,-0.0224 0.21485,-0.0254 0.0257,-10e-4 0.045,0.008 0.0703,0.004 0.0154,-0.002 0.0299,-0.007 0.0449,-0.0117 0.028,-0.0115 0.0553,-0.0255 0.084,-0.0352 0.14322,-0.0486 0.0206,-0.001 0.11914,-0.0254 0.0633,-0.0153 0.12613,-0.036 0.18555,-0.0625 0.0364,-0.0113 0.0754,-0.0184 0.11133,-0.0312 0.027,-0.01 0.0512,-0.0234 0.0781,-0.0332 0.0644,-0.0236 0.13354,-0.0291 0.19532,-0.0606 0.0556,-0.0147 0.0983,-0.0291 0.1582,-0.0352 0.0185,-0.002 0.038,0.002 0.0566,0.002 0.0751,0.002 0.14984,0.002 0.22461,-0.006 0.0152,-0.002 0.0182,-0.002 0.0293,-0.004 0.007,-0.003 0.0127,-0.007 0.0195,-0.01 l -1.11133,-44.23047 3.90039,11.48828 c 1.98404,4.61092 2.94269,17.15092 10.44531,11.88476 l -2.98437,-8.61914 c -2.89817,-11.1944 -10.65329,-22.15062 -7.33203,-34.09765 l 13.15625,-15.32032 c 2.94412,-4.57324 13.72508,-10.98526 6.1875,-15.95312 z"
     style="fill:#59c1c1;fill-opacity:0.12871291;fill-rule:evenodd;stroke:none;stroke-width:0.51188666px;stroke-linecap:butt;stroke-linejoin:miter;stroke-opacity:1" />
  <path
     id="path6015-7"
     d="M 898.2168 198.31445 L 892.86914 198.52344 L 892.97461 231.55273 L 889.19922 238.78711 L 860.46875 255.35352 L 863.30078 259.96875 L 891.61133 243.40039 L 893.91797 243.40039 L 892.53906 302 L 899.30859 302 L 898.00781 243.50586 L 900.62891 243.40039 L 928.83398 259.33789 L 931.56055 254.93555 L 902.93555 238.47266 L 898.42773 231.6582 L 898.2168 198.31445 z "
     style="fill:none;fill-opacity:1;fill-rule:evenodd;stroke:#59c2c2;stroke-width:1.5;stroke-linecap:butt;stroke-linejoin:miter;stroke-opacity:0.87843138;stroke-miterlimit:4;stroke-dasharray:none" />
  <path
     id="path6017-5"
     d="m 947.9359,148.55437 7.5455,-7.54555 45.2733,43.59647 15.3707,3.91251 60.0846,-17.88574 3.0742,10.34019 -60.0849,17.04732 -8.1043,8.94289 3.3535,152.02872 -14.5323,-0.27945 2.5153,-125.20014 -9.2224,36.88934 -10.0605,-2.51519 15.3704,-60.08488 -5.0304,-15.65002 z"
     style="fill:none;fill-opacity:1;fill-rule:evenodd;stroke:#59c2c2;stroke-width:2;stroke-linecap:butt;stroke-linejoin:miter;stroke-opacity:0.87843138;stroke-miterlimit:4;stroke-dasharray:none" />
  <path
     id="path6019-3"
     d="m 1061.588,226.36571 2.0273,-8.36268 55.2445,10.39 13.1775,-4.81488 37.7588,-43.08053 6.5888,6.08196 -36.9985,43.08053 -2.0274,14.44464 18.2459,52.7103 -8.8695,3.54782 -13.6844,-40.29298 3.0409,120.87891 -13.6843,-0.25342 3.0409,-135.57695 -8.3627,-7.34904 z"
     style="fill:none;fill-opacity:1;fill-rule:evenodd;stroke:#59c2c2;stroke-width:2;stroke-linecap:butt;stroke-linejoin:miter;stroke-opacity:0.87843138;stroke-miterlimit:4;stroke-dasharray:none" />
  <path
     id="path6166"
     d="m 794.5,309.5 c -16.4376,2.64132 -33.13751,3.34693 -49.5,6.5"
     style="fill:#58bfbf;fill-opacity:0.1254902;fill-rule:evenodd;stroke:#58bfbf;stroke-width:1.79999995;stroke-linecap:butt;stroke-linejoin:miter;stroke-miterlimit:4;stroke-dasharray:none;stroke-opacity:0.1254902" />
  <path
     id="path6168"
     d="m 734,318 c -38.06989,12.43758 -77.02905,21.88085 -116,31"
     style="fill:none;fill-opacity:0.1254902;fill-rule:evenodd;stroke:#58bfbf;stroke-width:1.79999995;stroke-linecap:butt;stroke-linejoin:miter;stroke-miterlimit:4;stroke-dasharray:none;stroke-opacity:0.1254902" />
  <path
     id="path6170"
     d="m 599.5,352 c -21.8106,5.10225 -43.88169,9.00407 -66,12.5"
     style="fill:#58bfbf;fill-opacity:0.1254902;fill-rule:evenodd;stroke:#58bfbf;stroke-width:1.79999995;stroke-linecap:butt;stroke-linejoin:miter;stroke-miterlimit:4;stroke-dasharray:none;stroke-opacity:0.1254902" />
  <path
     id="path6228"
     d="m 528.45497,364.84567 c -41.77492,2.30191 -79.50716,22.00205 -118.14478,36.01223 -12.65363,4.76407 -25.66789,8.64226 -39.15379,10.09017 -14.92376,2.08151 -29.96317,3.1429 -44.93396,4.80928"
     style="fill:none;fill-rule:evenodd;stroke:#59c1c1;stroke-width:1.7;stroke-linecap:butt;stroke-linejoin:miter;stroke-miterlimit:4;stroke-dasharray:none;stroke-opacity:1" />
  <path
     id="path6015-7-1"
     d="m 867.92561,530.44861 -5.34767,0.20899 0.10547,33.02929 -3.77539,7.23438 -28.73047,16.56641 2.83203,4.61523 28.31055,-16.56836 2.30664,0 -1.37891,58.59961 6.76954,0 -1.30078,-58.49414 2.6211,-0.10547 28.20507,15.9375 2.72657,-4.40234 -28.625,-16.46289 -4.50782,-6.81446 -0.21093,-33.34375 z"
     style="fill:#59c1c1;fill-opacity:1;fill-rule:evenodd;stroke:none;stroke-width:2;stroke-linecap:butt;stroke-linejoin:miter;stroke-miterlimit:4;stroke-dasharray:none;stroke-opacity:1" />
  <path
     id="path6017-5-2"
     d="m 917.64471,480.68853 7.5455,-7.54555 45.2733,43.59647 15.3707,3.91251 60.08459,-17.88574 3.0742,10.34019 -60.08489,17.04732 -8.1043,8.94289 3.3535,152.02872 -14.5323,-0.27945 2.5153,-125.20014 -9.2224,36.88934 -10.0605,-2.51519 15.3704,-60.08488 -5.0304,-15.65002 z"
     style="fill:#59c1c1;fill-opacity:1;fill-rule:evenodd;stroke:none;stroke-width:2;stroke-linecap:butt;stroke-linejoin:miter;stroke-miterlimit:4;stroke-dasharray:none;stroke-opacity:1" />
  <path
     id="path6019-3-7"
     d="m 1031.2968,558.49987 2.0273,-8.36268 55.2445,10.39 13.1775,-4.81488 37.7588,-43.08053 6.5888,6.08196 -36.9985,43.08053 -2.0274,14.44464 18.2459,52.7103 -8.8695,3.54782 -13.6844,-40.29298 3.0409,120.87891 -13.6843,-0.25342 3.0409,-135.57695 -8.3627,-7.34904 z"
     style="fill:#59c1c1;fill-opacity:1;fill-rule:evenodd;stroke:none;stroke-width:2;stroke-linecap:butt;stroke-linejoin:miter;stroke-miterlimit:4;stroke-dasharray:none;stroke-opacity:1" />
  <path
     id="path6087-0"
     d="m 767.18471,640.95229 c 147.1033,-19.47996 319.75789,11.58849 466.39089,78.1307"
     style="fill:none;fill-rule:evenodd;stroke:#59c1c1;stroke-width:1.70000005;stroke-linecap:butt;stroke-linejoin:miter;stroke-miterlimit:4;stroke-dasharray:none;stroke-opacity:1" />
  <path
     id="path6344"
     d="m 797,309 c 67.25894,-11.87991 135.65187,-2.87095 203,3"
     style="fill:none;fill-rule:evenodd;stroke:#59c1c1;stroke-width:2;stroke-linecap:butt;stroke-linejoin:miter;stroke-opacity:1;stroke-miterlimit:4;stroke-dasharray:none" />
  <path
     id="path6346"
     d="m 1014.5,312 c 35.7927,7.09897 70.6515,18.70127 107,23"
     style="fill:none;fill-rule:evenodd;stroke:#59c1c1;stroke-width:2;stroke-linecap:butt;stroke-linejoin:miter;stroke-opacity:1;stroke-miterlimit:4;stroke-dasharray:none" />
  <path
     id="path6348"
     d="m 1137,339 c 42.1917,13.90614 85.2563,25.55184 126,43.5"
     style="fill:none;fill-rule:evenodd;stroke:#59c1c1;stroke-width:2;stroke-linecap:butt;stroke-linejoin:miter;stroke-opacity:1;stroke-miterlimit:4;stroke-dasharray:none" />
</svg>
