<?xml version="1.0" encoding="UTF-8" standalone="no"?>
<svg
   xmlns:dc="http://purl.org/dc/elements/1.1/"
   xmlns:cc="http://creativecommons.org/ns#"
   xmlns:rdf="http://www.w3.org/1999/02/22-rdf-syntax-ns#"
   xmlns:svg="http://www.w3.org/2000/svg"
   xmlns="http://www.w3.org/2000/svg"
   viewBox="0 0 1280 420"
   height="420"
   width="1280"
   version="1.1"
   id="svg4190">
  <metadata
     id="metadata4196">
    <rdf:RDF>
      <cc:Work
         rdf:about="">
        <dc:format>image/svg+xml</dc:format>
        <dc:type
           rdf:resource="http://purl.org/dc/dcmitype/StillImage" />
        <dc:title></dc:title>
      </cc:Work>
    </rdf:RDF>
  </metadata>
  <defs
     id="defs4194" />
  <rect
     y="133.93762"
     x="-407.18088"
     height="61.187702"
     width="190.36174"
     id="rect5289-6"
     style="fill:#a2faa3;fill-opacity:1;fill-rule:evenodd;stroke:none;stroke-width:4.05000019;stroke-miterlimit:4;stroke-dasharray:none;stroke-opacity:1" />
  <rect
     y="201.40619"
     x="-407.18088"
     height="61.187702"
     width="190.36174"
     id="rect5289-6-7"
     style="fill:#88a0a8;fill-opacity:1;fill-rule:evenodd;stroke:none;stroke-width:4.05000019;stroke-miterlimit:4;stroke-dasharray:none;stroke-opacity:1" />
  <rect
     y="268.87469"
     x="-407.18088"
     height="61.187702"
     width="190.36174"
     id="rect5289-6-7-5"
     style="fill:#595358;fill-opacity:1;fill-rule:evenodd;stroke:none;stroke-width:4.05000019;stroke-miterlimit:4;stroke-dasharray:none;stroke-opacity:1" />
  <rect
     y="336.3432"
     x="-407.18088"
     height="61.187702"
     width="190.36174"
     id="rect5289-6-7-5-3"
     style="fill:#857f74;fill-opacity:1;fill-rule:evenodd;stroke:none;stroke-width:4.05000019;stroke-miterlimit:4;stroke-dasharray:none;stroke-opacity:1" />
  <rect
     y="66.469101"
     x="-407.18088"
     height="61.187702"
     width="190.36174"
     id="rect5289-6-7-5-3-3"
     style="fill:#59c3c3;fill-opacity:1;fill-rule:evenodd;stroke:none;stroke-width:4.05000019;stroke-miterlimit:4;stroke-dasharray:none;stroke-opacity:1" />
  <path
     id="path6015-7"
     d="m 682.2168,198.31445 -5.34766,0.20899 0.10547,33.02929 -3.77539,7.23438 -28.73047,16.56641 2.83203,4.61523 28.31055,-16.56836 2.30664,0 -1.50391,59.97461 7.20703,0.4375 -1.61328,-60.30664 2.6211,-0.10547 28.20507,15.9375 2.72657,-4.40234 -28.625,-16.46289 -4.50782,-6.81446 z"
     style="fill:none;fill-opacity:1;fill-rule:evenodd;stroke:#59c2c2;stroke-width:1.5;stroke-linecap:butt;stroke-linejoin:miter;stroke-miterlimit:4;stroke-dasharray:none;stroke-opacity:0.87843137" />
  <path
     id="path6017-5"
     d="m 731.9359,148.55437 7.5455,-7.54555 45.2733,43.59647 15.3707,3.91251 60.0846,-17.88574 3.0742,10.34019 -60.0849,17.04732 -8.1043,8.94289 3.3535,152.02872 -14.5323,-0.27945 2.5153,-125.20014 -9.2224,36.88934 -10.0605,-2.51519 15.3704,-60.08488 -5.0304,-15.65002 z"
     style="fill:none;fill-opacity:1;fill-rule:evenodd;stroke:#59c2c2;stroke-width:2;stroke-linecap:butt;stroke-linejoin:miter;stroke-miterlimit:4;stroke-dasharray:none;stroke-opacity:1" />
  <path
     id="path6019-3"
     d="m 855.588,226.36571 2.0273,-8.36268 55.2445,10.39 13.1775,-4.81488 37.7588,-43.08053 6.5888,6.08196 -36.9985,43.08053 -2.0274,14.44464 18.2459,52.7103 -8.8695,3.54782 -13.6844,-40.29298 3.0409,120.87891 -13.6843,-0.25342 3.0409,-135.57695 -8.3627,-7.34904 z"
     style="fill:none;fill-opacity:1;fill-rule:evenodd;stroke:#59c2c2;stroke-width:2;stroke-linecap:butt;stroke-linejoin:miter;stroke-miterlimit:4;stroke-dasharray:none;stroke-opacity:1" />
  <path
     id="path6166"
     d="m 581.0625,309 c -16.4376,2.64132 -35.70001,3.84693 -52.0625,7"
     style="fill:#58bfbf;fill-opacity:0.1254902;fill-rule:evenodd;stroke:#59c1c1;stroke-width:1.79999995;stroke-linecap:butt;stroke-linejoin:miter;stroke-miterlimit:4;stroke-dasharray:none;stroke-opacity:1" />
  <path
     id="path6168"
     d="m 531,315.625 c -39.81989,6.43758 -105.93895,21.42743 -144.9099,30.54658"
     style="fill:none;fill-opacity:0.1254902;fill-rule:evenodd;stroke:#59c1c1;stroke-width:1.79999995;stroke-linecap:butt;stroke-linejoin:miter;stroke-miterlimit:4;stroke-dasharray:none;stroke-opacity:1" />
  <path
     id="path6170"
     d="M 383.5,346.34315 C 361.6894,351.4454 266.68276,373.99976 196.23119,401.6231"
     style="fill:#58bfbf;fill-opacity:0.1254902;fill-rule:evenodd;stroke:#59c1c1;stroke-width:1.79999995;stroke-linecap:butt;stroke-linejoin:miter;stroke-miterlimit:4;stroke-dasharray:none;stroke-opacity:1" />
  <path
     id="path6015-7-1"
     d="m 391.61316,80.44861 -11.53678,0.45086 0.22754,71.25559 -8.14482,15.60706 -61.98155,35.73947 6.10967,9.95664 61.07563,-35.74367 4.97622,0 -5.44965,208.79754 19.20042,0.7071 -4.92755,-209.27711 5.65462,-0.22753 60.84808,34.38269 5.88215,-9.49737 -61.75401,-35.51614 -9.72493,-14.70114 z"
     style="fill:#59c1c1;fill-opacity:1;fill-rule:evenodd;stroke:none;stroke-width:2;stroke-linecap:butt;stroke-linejoin:miter;stroke-miterlimit:4;stroke-dasharray:none;stroke-opacity:1" />
  <path
     id="path6017-5-2"
     d="m 431.64471,251.0193 3.87629,-3.87632 23.2579,22.39647 7.89626,2.00994 30.86679,-9.1883 1.57928,5.31199 -30.86694,8.75758 -4.16335,4.59416 1.72276,78.10052 -7.46556,-0.14356 1.29217,-64.31808 -4.73776,18.95087 -5.1683,-1.29211 7.89612,-30.86693 -2.58423,-8.03976 z"
     style="fill:#59c1c1;fill-opacity:1;fill-rule:evenodd;stroke:none;stroke-width:2;stroke-linecap:butt;stroke-linejoin:miter;stroke-miterlimit:4;stroke-dasharray:none;stroke-opacity:1" />
  <path
     id="path6019-3-7"
     d="m 465.2968,201.46574 1.8048,-7.44486 49.18128,9.24967 11.73124,-4.28643 33.61468,-38.35234 5.86566,5.41445 -32.93782,38.35234 -1.80489,12.8593 16.24337,46.92522 -7.89605,3.15844 -12.18251,-35.87073 2.70716,107.61216 -12.18242,-0.22561 2.70716,-120.69705 -7.44488,-6.54246 z"
     style="fill:#59c1c1;fill-opacity:1;fill-rule:evenodd;stroke:none;stroke-width:2;stroke-linecap:butt;stroke-linejoin:miter;stroke-miterlimit:4;stroke-dasharray:none;stroke-opacity:1" />
  <path
     id="path6344"
     d="m 581,309 c 67.25894,-11.87991 135.65187,-2.87095 203,3"
     style="fill:none;fill-rule:evenodd;stroke:#59c1c1;stroke-width:2;stroke-linecap:butt;stroke-linejoin:miter;stroke-miterlimit:4;stroke-dasharray:none;stroke-opacity:1" />
  <path
     id="path6346"
     d="m 797.8125,313.3125 c 36.9177,4.72397 74.089,12.88877 109.0625,21.9375"
     style="fill:none;fill-rule:evenodd;stroke:#59c1c1;stroke-width:2;stroke-linecap:butt;stroke-linejoin:miter;stroke-miterlimit:4;stroke-dasharray:none;stroke-opacity:1" />
  <path
     id="path6348"
     d="m 929.0625,338.5 c 42.1917,13.90614 87.1938,26.05184 127.9375,44"
     style="fill:none;fill-rule:evenodd;stroke:#59c1c1;stroke-width:2;stroke-linecap:butt;stroke-linejoin:miter;stroke-miterlimit:4;stroke-dasharray:none;stroke-opacity:1" />
  <path
     id="path6"
     d="m 274.57523,208.12067 c -19.22729,-19.27342 -23.62393,-24.28721 -22.74193,-29.33576 0.33341,-1.87278 1.92624,-4.03397 3.86557,-5.15626 24.18576,-13.9469 37.51145,-32.64354 37.51145,-52.62578 0,-40.32928 -54.90893,-73.146559 -122.38447,-73.146559 -67.48422,0 -122.384205,32.813803 -122.384205,73.146559 0,40.33624 54.899985,73.15353 122.384205,73.15353 l 1.00049,0 c 17.49846,0 25.18146,-0.16679 40.09997,-4.25635 2.38256,-0.65323 4.98898,-0.48992 7.20034,0.46906 21.54404,9.22497 46.01039,19.08233 62.82464,25.1906 -2.54932,-2.60244 -5.1425,-5.20141 -7.37606,-7.43904 z"
     style="fill:none;stroke:#59c2c2;stroke-width:1.75345564;stroke-miterlimit:4;stroke-dasharray:none;stroke-opacity:1" />
  <g
     style="fill:none;stroke:#59c2c2;stroke-width:2;stroke-miterlimit:4;stroke-dasharray:none;stroke-opacity:1"
     id="g5"
     transform="matrix(-0.83297888,0,0,0.93359663,602.29826,1320.728)">
    <path
       style="fill:none;stroke:#59c2c2;stroke-width:2;stroke-miterlimit:4;stroke-dasharray:none;stroke-opacity:1"
       id="path7"
       d="m -686.16789,-1344.1528 c -13.92699,0 -25.25734,9.7481 -25.25734,21.7305 l 0,87.6032 c 0,11.9819 11.33035,21.7304 25.25734,21.7304 l 117.1382,0 c 1.22868,0 2.41754,0.3738 3.35764,1.0549 l 44.90292,32.5706 0,-29.1444 c 0,-2.4748 2.33216,-4.4811 5.20848,-4.4811 l 14.67226,0 c 13.92699,0 25.25734,-9.7485 25.25734,-21.7304 l 0,-87.6032 c 0,-11.9824 -11.33035,-21.7305 -25.25734,-21.7305 z" />
  </g>
  <text
     id="text7303"
     y="139.15729"
     x="1031.3464"
     style="font-style:normal;font-variant:normal;font-weight:normal;font-stretch:normal;font-size:40px;line-height:125%;font-family:'Courier 10 Pitch';-inkscape-font-specification:'Courier 10 Pitch, Normal';text-align:start;letter-spacing:0px;word-spacing:0px;writing-mode:lr-tb;text-anchor:start;fill:#59c1c1;fill-opacity:1;stroke:none;stroke-width:1px;stroke-linecap:butt;stroke-linejoin:miter;stroke-opacity:1"
     xml:space="preserve"><tspan
       y="139.15729"
       x="1031.3464"
       id="tspan7305">?!¿#!!</tspan></text>
  <text
     id="text7303-9"
     y="130.0694"
     x="102.39568"
     style="font-style:normal;font-weight:normal;font-size:40px;line-height:125%;font-family:sans-serif;letter-spacing:0px;word-spacing:0px;fill:#59c1c1;fill-opacity:1;stroke:none;stroke-width:1px;stroke-linecap:butt;stroke-linejoin:miter;stroke-opacity:1"
     xml:space="preserve"><tspan
       style="font-style:normal;font-variant:normal;font-weight:normal;font-stretch:normal;font-size:40px;line-height:125%;font-family:'Courier 10 Pitch';-inkscape-font-specification:'Courier 10 Pitch, Normal';text-align:start;writing-mode:lr-tb;text-anchor:start"
       y="130.0694"
       x="102.39568"
       id="tspan7305-3">Hello!</tspan></text>
</svg>
