<?xml version="1.0" encoding="UTF-8" standalone="no"?>
<!-- Created with Inkscape (http://www.inkscape.org/) -->

<svg
   xmlns:dc="http://purl.org/dc/elements/1.1/"
   xmlns:cc="http://creativecommons.org/ns#"
   xmlns:rdf="http://www.w3.org/1999/02/22-rdf-syntax-ns#"
   xmlns:svg="http://www.w3.org/2000/svg"
   xmlns="http://www.w3.org/2000/svg"
   xmlns:sodipodi="http://sodipodi.sourceforge.net/DTD/sodipodi-0.dtd"
   xmlns:inkscape="http://www.inkscape.org/namespaces/inkscape"
   width="547"
   height="547"
   viewBox="0 0 547.00001 547.00001"
   id="svg5101"
   version="1.1"
   inkscape:version="0.91 r13725"
   inkscape:export-filename="/home/fp/Dev/manifesto/src/components/thank_you/img/twitter_share_over.png"
   inkscape:export-xdpi="90"
   inkscape:export-ydpi="90"
   sodipodi:docname="sharingicons.svg">
  <defs
     id="defs5103" />
  <sodipodi:namedview
     id="base"
     pagecolor="#ffffff"
     bordercolor="#666666"
     borderopacity="1.0"
     inkscape:pageopacity="0.0"
     inkscape:pageshadow="2"
     inkscape:zoom="0.49497475"
     inkscape:cx="-44.614821"
     inkscape:cy="-959.09546"
     inkscape:document-units="px"
     inkscape:current-layer="g5689"
     showgrid="false"
     units="px"
     showguides="true"
     inkscape:guide-bbox="true"
     inkscape:window-width="1215"
     inkscape:window-height="776"
     inkscape:window-x="65"
     inkscape:window-y="24"
     inkscape:window-maximized="1">
    <sodipodi:guide
       position="5.0000001,26.875001"
       orientation="1,0"
       id="guide5708" />
    <sodipodi:guide
       position="-18.482143,4.9107144"
       orientation="0,1"
       id="guide5710" />
    <sodipodi:guide
       position="-21.517858,541.9643"
       orientation="0,1"
       id="guide5712" />
  </sodipodi:namedview>
  <metadata
     id="metadata5106">
    <rdf:RDF>
      <cc:Work
         rdf:about="">
        <dc:format>image/svg+xml</dc:format>
        <dc:type
           rdf:resource="http://purl.org/dc/dcmitype/StillImage" />
        <dc:title></dc:title>
      </cc:Work>
    </rdf:RDF>
  </metadata>
  <g
     inkscape:label="Layer 1"
     inkscape:groupmode="layer"
     id="layer1"
     transform="translate(0,-505.36216)">
    <g
       id="g5689"
       transform="matrix(1.2524224,0,0,1.2524224,43.67342,1139.5774)">
      <g
         id="g5650"
         style="fill:#a2faa3;fill-opacity:1"
         inkscape:export-xdpi="91.389526"
         inkscape:export-ydpi="91.389526">
        <path
           d="M 398.355,0 31.782,0 C 14.229,0 0.002,13.793 0.002,30.817 l 0,368.471 c 0,17.025 14.232,30.83 31.78,30.83 l 366.573,0 c 17.549,0 31.76,-13.814 31.76,-30.83 l 0,-368.471 C 430.115,13.798 415.904,0 398.355,0 Z M 130.4,360.038 l -64.987,0 0,-194.193 64.987,0 0,194.193 z m -32.487,-220.723 -0.437,0 c -21.793,0 -35.92,-14.904 -35.92,-33.563 0,-19.035 14.542,-33.535 36.767,-33.535 22.227,0 35.899,14.496 36.331,33.535 0,18.663 -14.099,33.563 -36.741,33.563 z m 266.746,220.723 -64.966,0 0,-103.9 c 0,-26.107 -9.413,-43.921 -32.907,-43.921 -17.973,0 -28.642,12.018 -33.327,23.621 -1.736,4.144 -2.166,9.94 -2.166,15.728 l 0,108.468 -64.954,0 c 0,0 0.85,-175.979 0,-194.192 l 64.964,0 0,27.531 c 8.624,-13.229 24.035,-32.1 58.534,-32.1 42.76,0 74.822,27.739 74.822,87.414 l 0,111.351 z M 230.883,193.99 c 0.111,-0.182 0.266,-0.401 0.42,-0.614 l 0,0.614 -0.42,0 z"
           id="LinkedIn__x28_alt_x29_"
           inkscape:connector-curvature="0"
           style="fill:#a2faa3;fill-opacity:1" />
      </g>
      <g
         id="g5653" />
      <g
         id="g5655" />
      <g
         id="g5657" />
      <g
         id="g5659" />
      <g
         id="g5661" />
      <g
         id="g5663" />
      <g
         id="g5665" />
      <g
         id="g5667" />
      <g
         id="g5669" />
      <g
         id="g5671" />
      <g
         id="g5673" />
      <g
         id="g5675" />
      <g
         id="g5677" />
      <g
         id="g5679" />
      <g
         id="g5681" />
      <path
         d="m 298.83752,476.69528 -235.99967,0 c -5.61907,0 -10.43538,4.81631 -10.43538,10.43538 l 0,235.197 c 0,6.42184 4.81631,11.23815 10.43538,11.23815 l 126.02701,0 0,-96.32641 -32.1088,0 0,-40.13608 32.1088,0 0,-32.1088 c 0,-32.91147 20.87076,-49.76859 50.57146,-49.76859 14.44891,0 26.48973,1.60543 29.7006,1.60543 l 0,34.51691 -20.87076,0 c -16.05435,0 -20.06799,8.02727 -20.06799,19.26532 l 0,26.48973 40.13598,0 -8.02718,40.13608 -32.1088,0 0.80227,96.32641 69.03391,0 c 5.61907,0 10.43538,-4.81631 10.43538,-10.43538 l 0,-235.99977 c 0.80327,-5.61907 -4.01354,-10.43538 -9.63261,-10.43538 z"
         id="White_2_"
         inkscape:connector-curvature="0"
         style="fill:#a2faa3;fill-opacity:1"
         inkscape:export-xdpi="153.58534"
         inkscape:export-ydpi="153.58534" />
      <path
         id="path5833"
         d="m 398.67574,-418.03901 c -15.84213,6.60098 -31.68426,11.88168 -50.16691,13.20195 18.48265,-10.5616 31.68443,-27.72382 38.2854,-47.52656 -17.16241,10.56141 -35.64505,17.16239 -55.44762,21.12283 -15.8423,-17.16239 -38.28541,-27.72381 -62.04861,-27.72381 -47.52656,0 -87.13206,38.28523 -87.13206,87.13206 0,6.6008 1.31945,13.20177 2.64037,19.80273 -72.61002,-3.96062 -135.978715,-38.28539 -179.5448126,-91.09265 -7.9210666,13.20192 -11.8815295,27.7238 -11.8815295,43.5661 0,30.36417 15.8421334,56.76772 38.2852391,72.61001 -14.522039,0 -27.7238037,-3.96062 -39.6054941,-10.56141 0,0 0,1.31943 0,1.31943 0,42.24584 30.3641731,76.57062 69.9696671,84.49169 -7.921067,1.31943 -14.522039,2.64036 -22.443107,2.64036 -5.280717,0 -10.561415,0 -15.842133,-1.31943 10.561416,34.32478 43.565938,59.40824 80.53108,60.72849 -29.044075,23.7632 -67.329295,36.96498 -108.2548831,36.96498 -6.6009729,0 -14.5220399,0 -21.1230129,-1.31945 39.605495,23.76319 85.811962,38.28523 134.658626,38.28523 159.74205,0 246.87411,-132.01823 246.87411,-246.87393 0,-3.96063 0,-7.92123 0,-10.5616 15.84213,-13.20177 30.36417,-27.72381 42.24568,-44.88619 z"
         inkscape:connector-curvature="0"
         style="fill:#a2faa3;fill-opacity:1" />
      <path
         id="path5843"
         d="m 526.5968,512.82805 -104.98736,0 c -2.49972,0 -4.64231,2.14259 -4.64231,4.64231 l 0,104.63024 c 0,2.85684 2.14259,4.99943 4.64231,4.99943 l 104.63024,0 c 2.49972,0 4.64231,-2.14259 4.64231,-4.64231 l 0,-104.98736 c 0.3569,-2.49972 -1.78552,-4.64231 -4.28519,-4.64231 z m -75.70518,97.48828 -17.14079,0 0,-54.6363 17.14079,0 0,54.6363 z m -8.57042,-62.1354 c -5.3565,0 -9.99876,-4.28518 -9.99876,-9.99876 0,-5.3565 4.28518,-9.99881 9.99876,-9.99881 5.35651,0 9.99881,4.28519 9.99881,9.99881 0,5.71358 -4.6423,9.99876 -9.99881,9.99876 z m 72.1342,62.1354 -16.7837,0 0,-26.4254 c 0,-6.42777 0,-14.28399 -8.92749,-14.28399 -8.92749,0 -9.99881,6.7849 -9.99881,13.92692 l 0,27.13959 -16.7837,0 0,-54.99342 15.71243,0 0,7.49914 0.3569,0 c 2.14259,-4.28523 7.85617,-8.92754 16.06946,-8.92754 17.14082,0 20.35469,11.4272 20.35469,26.06832 l 0,29.99638 z"
         inkscape:connector-curvature="0"
         style="fill:#444444" />
      <g
         id="g5895"
         transform="matrix(0.79845266,0,0,0.79845266,-243.12644,615.77444)">
        <g
           id="g5853">
          <path
             id="path5855"
             d="M 205.142,0 17.5,0 C 7.851,0 0,7.851 0,17.5 l 0,187.643 c 0,9.65 7.851,17.5 17.5,17.5 l 187.642,0 c 9.649,0 17.5,-7.85 17.5,-17.5 l 0,-187.643 c 0,-9.649 -7.851,-17.5 -17.5,-17.5 z m 2.5,205.143 c 0,1.355 -1.145,2.5 -2.5,2.5 l -187.642,0 c -1.355,0 -2.5,-1.145 -2.5,-2.5 L 15,17.5 C 15,16.145 16.145,15 17.5,15 l 187.642,0 c 1.355,0 2.5,1.145 2.5,2.5 l 0,187.643 z"
             style="fill:#a2faa3;fill-opacity:1"
             inkscape:connector-curvature="0"
             inkscape:export-xdpi="221.11626"
             inkscape:export-ydpi="221.11626" />
          <path
             id="path5857"
             d="m 111.321,45.321 c -36.393,0 -66,29.608 -66,66 0,36.393 29.607,66 66,66 10.674,0 21.279,-2.609 30.67,-7.545 3.666,-1.927 5.076,-6.462 3.149,-10.128 -1.927,-3.668 -6.463,-5.076 -10.128,-3.149 -7.35,3.863 -15.32,5.822 -23.69,5.822 -28.122,0 -51,-22.879 -51,-51 0,-28.121 22.878,-51 51,-51 28.122,0 51,22.879 51,51 0,7.981 -4.079,14.388 -10.91,17.138 -4.837,1.947 -10.09,1.67 -14.507,-0.544 1.672,-3.259 2.883,-6.854 3.518,-10.697 0.378,-2.289 0.53,-4.579 0.474,-6.842 l 0.014,-27.478 c 0.002,-4.143 -3.354,-7.502 -7.496,-7.504 -0.001,0 -0.002,0 -0.004,0 -4.14,0 -7.498,3.355 -7.5,7.496 l 0,0.179 c -3.245,-2.026 -6.857,-3.41 -10.715,-4.047 -1.566,-0.259 -3.162,-0.39 -4.743,-0.39 -15.486,0 -28.701,11.966 -31.422,28.452 -3.015,18.268 8.302,35.403 25.228,38.198 1.565,0.258 3.16,0.389 4.74,0.389 6.682,0 12.939,-2.231 18.115,-6.089 8.75,5.673 19.833,6.842 29.9,2.791 12.527,-5.043 20.309,-16.941 20.309,-31.053 -0.002,-36.391 -29.609,-65.999 -66.002,-65.999 z m -4.62,85.162 c -8.766,-1.447 -14.54,-10.848 -12.871,-20.955 1.496,-9.063 8.642,-15.896 16.623,-15.896 0.765,0 1.538,0.063 2.299,0.189 4.105,0.677 7.708,3.133 10.145,6.916 1.895,2.941 2.911,6.401 2.999,10.018 l 0,0.739 c -0.012,1.085 -0.092,2.18 -0.273,3.279 -1.496,9.063 -8.643,15.897 -16.624,15.897 -0.766,0.002 -1.539,-0.062 -2.298,-0.187 z"
             style="fill:#a2faa3;fill-opacity:1"
             inkscape:connector-curvature="0"
             inkscape:export-xdpi="221.11626"
             inkscape:export-ydpi="221.11626" />
        </g>
        <g
           id="g5859" />
        <g
           id="g5861" />
        <g
           id="g5863" />
        <g
           id="g5865" />
        <g
           id="g5867" />
        <g
           id="g5869" />
        <g
           id="g5871" />
        <g
           id="g5873" />
        <g
           id="g5875" />
        <g
           id="g5877" />
        <g
           id="g5879" />
        <g
           id="g5881" />
        <g
           id="g5883" />
        <g
           id="g5885" />
        <g
           id="g5887" />
      </g>
    </g>
    <rect
       style="fill:#a2faa3;fill-opacity:1;fill-rule:evenodd;stroke:none;stroke-width:4.05000019;stroke-miterlimit:4;stroke-dasharray:none;stroke-opacity:1"
       id="rect5289-6"
       width="190.36174"
       height="61.187702"
       x="-206.29765"
       y="1416.9497" />
    <rect
       style="fill:#88a0a8;fill-opacity:1;fill-rule:evenodd;stroke:none;stroke-width:4.05000019;stroke-miterlimit:4;stroke-dasharray:none;stroke-opacity:1"
       id="rect5289-6-7"
       width="190.36174"
       height="61.187702"
       x="-206.29765"
       y="1484.4182" />
    <rect
       style="fill:#595358;fill-opacity:1;fill-rule:evenodd;stroke:none;stroke-width:4.05000019;stroke-miterlimit:4;stroke-dasharray:none;stroke-opacity:1"
       id="rect5289-6-7-5"
       width="190.36174"
       height="61.187702"
       x="-206.29765"
       y="1551.8867" />
    <rect
       style="fill:#857f74;fill-opacity:1;fill-rule:evenodd;stroke:none;stroke-width:4.05000019;stroke-miterlimit:4;stroke-dasharray:none;stroke-opacity:1"
       id="rect5289-6-7-5-3"
       width="190.36174"
       height="61.187702"
       x="-206.29765"
       y="1619.3552" />
    <rect
       style="fill:#59c3c3;fill-opacity:1;fill-rule:evenodd;stroke:none;stroke-width:4.05000019;stroke-miterlimit:4;stroke-dasharray:none;stroke-opacity:1"
       id="rect5289-6-7-5-3-3"
       width="190.36174"
       height="61.187702"
       x="-206.29765"
       y="1349.4811" />
  </g>
</svg>
